<svg id="Capa_1" enable-background="new 0 0 512 512" height="512" viewBox="0 0 512 512" width="512" xmlns="http://www.w3.org/2000/svg"><g><path d="m193.877 370.275c4.142 0 7.5-3.358 7.5-7.5v-213.55c0-4.142-3.358-7.5-7.5-7.5s-7.5 3.358-7.5 7.5v213.551c0 4.141 3.358 7.499 7.5 7.499zm183.675-229.37c-2.697-8.694-12.296-13.657-20.927-10.886l-35.106 11.087c-8.766 2.769-13.647 12.153-10.882 20.919l27.685 87.77c1.246 3.95 5.455 6.14 9.409 4.896 3.95-1.246 6.142-5.458 4.896-9.409l-27.685-87.77c-.278-.881.212-1.825 1.094-2.103l35.105-11.087c.992-.279 1.768.13 2.105 1.095l72.316 229.263c.278.881-.212 1.825-1.094 2.103l-35.106 11.087c-.984.281-1.769-.128-2.104-1.095l-34.111-108.143c-1.247-3.95-5.455-6.142-9.409-4.896-3.95 1.246-6.142 5.458-4.896 9.409l34.112 108.143c2.668 8.637 12.293 13.669 20.927 10.886l35.106-11.087c8.766-2.769 13.647-12.153 10.882-20.919zm-300.425 220.493v-180.796c0-4.142-3.358-7.5-7.5-7.5s-7.5 3.358-7.5 7.5v180.796c0 4.142 3.358 7.5 7.5 7.5s7.5-3.358 7.5-7.5zm433.101 81.305-124.869-395.869c-6.211-20.009-28.107-31.178-47.777-24.866l-62.455 19.724c-4.317 1.364-8.219 3.433-11.625 6.036v-10.228c0-20.678-16.822-37.5-37.5-37.5h-64.25c-20.678 0-37.5 16.822-37.5 37.5v.02c-6.272-4.719-14.064-7.52-22.5-7.52h-64.25c-20.678 0-37.5 16.822-37.5 37.5v260.118c0 4.142 3.358 7.5 7.5 7.5s7.5-3.358 7.5-7.5v-189.99h109.25v266.743h-109.25v-41.754c0-4.142-3.358-7.5-7.5-7.5s-7.5 3.358-7.5 7.5v111.883c0 20.678 16.822 37.5 37.5 37.5h64.25c12.254 0 23.153-5.909 30-15.026 6.847 9.117 17.746 15.026 30 15.026h64.25c20.678 0 37.5-16.822 37.5-37.5v-343.079l111.643 353.938c6.081 19.689 28.033 31.231 47.777 24.865l62.455-19.724c20.022-6.323 31.171-27.765 24.851-47.797zm-385.976 31.797c0 12.407-10.093 22.5-22.5 22.5h-64.25c-12.407 0-22.5-10.093-22.5-22.5v-6.872h109.25zm0-21.872h-109.25v-33.257h109.25zm0-330h-109.25v-33.256h109.25zm0-48.256h-109.25v-6.872c0-12.407 10.093-22.5 22.5-22.5h64.25c12.407 0 22.5 10.093 22.5 22.5zm124.25 400.128c0 12.407-10.093 22.5-22.5 22.5h-64.25c-12.407 0-22.5-10.093-22.5-22.5v-53.5h109.25zm0-68.5h-109.25v-300h109.25zm0-315h-109.25v-53.5c0-12.407 10.093-22.5 22.5-22.5h64.25c12.407 0 22.5 10.093 22.5 22.5zm232.358 385.197-62.455 19.724c-12.02 3.859-25.246-3.118-28.954-15.074l-124.87-395.869c-3.832-12.147 2.926-25.148 15.064-28.981l62.455-19.725c11.905-3.838 25.233 3.044 28.955 15.075l124.87 395.869c3.83 12.147-2.928 25.147-15.065 28.981z"/></g></svg>