<?xml version="1.0" encoding="UTF-8"?>
<svg xmlns="http://www.w3.org/2000/svg" width="512" height="512" viewBox="0 0 512 512"><g><path d="M240,312a8,8,0,0,0,0,16h8a8,8,0,0,0,16,0h8a8,8,0,0,0,8-8V296a8,8,0,0,0-8-8H248v-8h24a8,8,0,0,0,0-16h-8a8,8,0,0,0-16,0h-8a8,8,0,0,0-8,8v24a8,8,0,0,0,8,8h24v8Z"/><path d="M256,376a80,80,0,1,0-80-80A80.091,80.091,0,0,0,256,376Zm0-144a64,64,0,1,1-64,64A64.072,64.072,0,0,1,256,232Z"/><path d="M80,376a24.028,24.028,0,0,1,24,24,8,8,0,0,0,8,8H400a8,8,0,0,0,8-8,24.028,24.028,0,0,1,24-24,8,8,0,0,0,8-8V224a8,8,0,0,0-8-8,24.028,24.028,0,0,1-24-24,8,8,0,0,0-8-8H112a8,8,0,0,0-8,8,24.028,24.028,0,0,1-24,24,8,8,0,0,0-8,8V368A8,8,0,0,0,80,376Zm8-144.8A40.126,40.126,0,0,0,119.2,200H392.8A40.126,40.126,0,0,0,424,231.2V360.8A40.126,40.126,0,0,0,392.8,392H119.2A40.126,40.126,0,0,0,88,360.8Z"/><path d="M476,40h-4V24a8,8,0,0,0-8-8H432a8,8,0,0,0-8,8V40H376V24a8,8,0,0,0-8-8H336a8,8,0,0,0-8,8V40H280V24a8,8,0,0,0-8-8H240a8,8,0,0,0-8,8V40H184V24a8,8,0,0,0-8-8H144a8,8,0,0,0-8,8V40H88V24a8,8,0,0,0-8-8H48a8,8,0,0,0-8,8V40H36A28.031,28.031,0,0,0,8,68V420a28.031,28.031,0,0,0,28,28h4v40a8,8,0,0,0,8,8H464a8,8,0,0,0,8-8V448h4a28.031,28.031,0,0,0,28-28V68A28.031,28.031,0,0,0,476,40Zm-36-8h16V64H440Zm-96,0h16V64H344Zm-96,0h16V64H248Zm-96,0h16V64H152ZM56,32H72V64H56ZM456,480H56V464H456Zm0-32H56V432H456Zm0-32H56V176H456Zm32,4a12.01,12.01,0,0,1-12,12h-4V168a8,8,0,0,0-8-8H48a8,8,0,0,0-8,8V432H36a12.01,12.01,0,0,1-12-12V104H488Zm0-332H24V68A12.01,12.01,0,0,1,36,56h4V72a8,8,0,0,0,8,8H80a8,8,0,0,0,8-8V56h48V72a8,8,0,0,0,8,8h32a8,8,0,0,0,8-8V56h48V72a8,8,0,0,0,8,8h32a8,8,0,0,0,8-8V56h48V72a8,8,0,0,0,8,8h32a8,8,0,0,0,8-8V56h48V72a8,8,0,0,0,8,8h32a8,8,0,0,0,8-8V56h4a12.01,12.01,0,0,1,12,12Z"/></g></svg>
