<svg height="937pt" viewBox="0 -47 937.5 937" width="937pt" xmlns="http://www.w3.org/2000/svg"><path d="m859.375 125.25h-250v-78.125c0-25.882812-20.992188-46.875-46.875-46.875h-187.5c-25.882812 0-46.875 20.992188-46.875 46.875v78.125h-250c-43.125.054688-78.0703125 35-78.125 78.125v562.5c.0546875 43.125 35 78.070312 78.125 78.125h781.25c43.125-.054688 78.070312-35 78.125-78.125v-562.5c-.054688-43.125-35-78.070312-78.125-78.125zm46.875 218.75h-875v-31.25h875zm0 250h-875v-218.75h875zm-875 31.25h875v31.25h-875zm328.125-578.125c0-8.632812 6.992188-15.625 15.625-15.625h187.5c8.632812 0 15.625 6.992188 15.625 15.625v78.125h-31.25v-46.875c0-8.632812-6.992188-15.625-15.625-15.625h-125c-8.632812 0-15.625 6.992188-15.625 15.625v46.875h-31.25zm156.25 78.125h-93.75v-31.25h93.75zm-484.375 78.125c0-25.882812 20.992188-46.875 46.875-46.875h781.25c25.882812 0 46.875 20.992188 46.875 46.875v78.125h-875zm875 562.5c0 25.882812-20.992188 46.875-46.875 46.875h-781.25c-25.882812 0-46.875-20.992188-46.875-46.875v-78.125h875zm0 0"/></svg>