<?xml version="1.0" encoding="UTF-8"?>
<svg xmlns="http://www.w3.org/2000/svg" xmlns:xlink="http://www.w3.org/1999/xlink" width="375pt" height="374.999991pt" viewBox="0 0 375 374.999991" version="1.2">
<defs>
<clipPath id="clip1">
  <path d="M 54.804688 25.78125 L 310.550781 25.78125 L 310.550781 337.757812 L 54.804688 337.757812 Z M 54.804688 25.78125 "/>
</clipPath>
</defs>
<g id="surface1">
<g clip-path="url(#clip1)" clip-rule="nonzero">
<path style=" stroke:none;fill-rule:evenodd;fill:rgb(6.269836%,5.879211%,5.099487%);fill-opacity:1;" d="M 210.316406 330.621094 C 207.808594 327.886719 200.902344 328.445312 201.214844 333.429688 C 207.183594 334.015625 212.835938 333.164062 219.417969 333.429688 C 218.746094 328.878906 214.59375 330.335938 210.316406 330.621094 Z M 136.105469 329.21875 C 141.277344 330.699219 149.0625 329.566406 155.359375 329.921875 C 154.984375 327.605469 152.710938 327.195312 151.507812 325.710938 C 146.730469 328.679688 137.605469 321.019531 136.105469 329.21875 Z M 211.71875 328.167969 C 213.210938 327.792969 212.992188 325.707031 213.117188 323.960938 C 211.351562 324.261719 211.160156 324.054688 209.269531 323.960938 C 209.097656 326.355469 210.746094 326.921875 211.71875 328.167969 Z M 145.554688 322.910156 C 146.492188 323.257812 147.402344 323.628906 148.707031 323.609375 C 149.234375 322.621094 149.550781 321.417969 149.40625 319.75 C 148.253906 320.34375 147.167969 319.960938 145.90625 319.75 C 145.890625 320.90625 145.316406 321.496094 145.554688 322.910156 Z M 201.566406 269.257812 C 194.808594 273.296875 205.003906 273.898438 206.46875 276.972656 C 205.65625 278.847656 202.316406 278.191406 201.566406 280.128906 C 202.230469 283.085938 206.269531 282.664062 206.816406 285.742188 C 206.363281 288.207031 202.355469 287.117188 201.566406 289.246094 C 201.320312 291.953125 206.300781 292.449219 206.816406 295.558594 C 206.113281 298.125 201.492188 296.769531 200.164062 298.714844 C 199.550781 303.417969 204.125 302.929688 204.71875 306.429688 C 203.710938 308.226562 200.355469 307.671875 199.464844 309.582031 C 198.902344 313.773438 202.832031 313.460938 203.667969 316.246094 C 204.335938 317.570312 201.542969 318.132812 203.316406 318.351562 C 209.59375 323.046875 219.332031 319.464844 223.972656 315.542969 C 224.113281 309.671875 214.882812 315.132812 212.769531 311.335938 C 217.210938 309.101562 230.871094 310.292969 225.371094 302.570312 C 222.785156 302.472656 219.675781 302.898438 218.367188 301.519531 C 221.707031 298.957031 229.070312 300.320312 229.570312 295.558594 C 229.78125 293.578125 228.058594 292.144531 227.121094 290.296875 C 224.695312 290.796875 220.070312 290.945312 217.667969 290.296875 C 218.859375 286.371094 225.203125 288.996094 228.871094 287.84375 C 232.160156 286.8125 233.179688 282.046875 230.621094 279.429688 C 226.34375 278.730469 221.332031 280.769531 218.367188 279.078125 C 220.035156 275.484375 226.753906 276.957031 231.671875 276.625 C 233.382812 274.945312 234.535156 272.710938 234.820312 269.609375 C 224.433594 268.796875 212.539062 269.492188 201.566406 269.257812 Z M 146.257812 269.257812 C 140.761719 269.257812 134.199219 267.925781 130.503906 269.257812 C 125.246094 271.160156 131.527344 277.03125 134.703125 278.027344 C 137.84375 279.011719 142.71875 277.542969 143.804688 280.832031 C 139.792969 282.007812 132.925781 279.285156 130.152344 282.234375 C 129.855469 290.714844 143.636719 285.089844 146.605469 290.296875 C 141.332031 290.796875 132.152344 288.800781 131.554688 293.101562 C 131.226562 295.449219 136.125 298.703125 139.953125 299.414062 C 142.414062 299.871094 146.515625 298.269531 146.957031 301.519531 C 142.875 302.339844 136.882812 301.25 134.355469 303.625 C 136.390625 308.828125 144.035156 308.417969 149.058594 310.636719 C 146.316406 312.332031 141.246094 311.695312 138.203125 313.089844 C 139.554688 316.582031 147.738281 316.261719 151.507812 315.542969 C 158.476562 314.222656 159.410156 312.886719 155.707031 308.53125 C 156.933594 305.792969 160.707031 305.660156 160.609375 302.921875 C 160.492188 299.664062 155.996094 301.320312 155.707031 297.3125 C 156.535156 296.269531 158.5 296.367188 159.207031 295.207031 C 160.066406 290.609375 157.589844 289.347656 156.40625 286.792969 C 157.644531 285.226562 159.511719 284.289062 160.609375 282.585938 C 161.601562 278.667969 158.796875 278.558594 158.507812 275.921875 C 158.867188 274.644531 160.667969 274.8125 161.660156 274.167969 C 162.199219 272.957031 161.96875 270.972656 162.007812 269.257812 C 157.414062 269.257812 152.050781 269.261719 146.257812 269.257812 Z M 208.21875 259.09375 C 189.480469 256.878906 163.203125 254.492188 146.605469 260.492188 C 145.9375 262.042969 145.777344 264.105469 145.90625 266.453125 C 167.378906 266.453125 188.847656 266.453125 210.316406 266.453125 C 209.703125 263.914062 209.949219 260.515625 208.21875 259.09375 Z M 134.703125 155.300781 C 136.878906 182.3125 134.945312 216.242188 137.503906 244.011719 C 166.207031 246.019531 196.480469 245.117188 225.371094 244.011719 C 229.421875 215.15625 224 183.71875 225.371094 154.25 C 195.265625 154.25 165.160156 154.25 135.054688 154.25 C 134.644531 154.308594 134.675781 154.800781 134.703125 155.300781 Z M 120 155.300781 C 120 192.351562 120 229.402344 120 266.453125 C 127.585938 266.453125 135.171875 266.453125 142.757812 266.453125 C 140.640625 256.894531 152.332031 254.488281 160.957031 253.832031 C 170.242188 253.125 184.355469 253.980469 192.816406 254.53125 C 199.480469 254.96875 208.929688 254.058594 211.367188 256.988281 C 213.132812 259.109375 212.820312 263.820312 213.46875 266.453125 C 224.34375 266.484375 234.042969 266.390625 244.273438 266.453125 C 244.273438 229.050781 244.273438 191.652344 244.273438 154.25 C 238.671875 154.25 233.070312 154.25 227.46875 154.25 C 226.945312 177.269531 230.941406 201.546875 229.921875 224.726562 C 229.585938 232.402344 229.96875 240.21875 227.121094 246.46875 C 202.632812 247.675781 174.445312 249.035156 148.707031 247.171875 C 144.203125 246.84375 139.453125 247.988281 135.402344 245.765625 C 131.507812 217.453125 134.742188 184.015625 132.605469 154.25 C 128.636719 154.25 124.667969 154.25 120.703125 154.25 C 120.261719 154.394531 119.984375 154.703125 120 155.300781 Z M 262.828125 141.976562 C 258.285156 146.898438 253.492188 151.558594 247.074219 154.597656 C 247.074219 161.496094 247.074219 168.394531 247.074219 175.289062 C 256.371094 168.703125 263.117188 159.566406 270.527344 151.09375 C 268.277344 147.738281 265.398438 145.011719 262.828125 141.976562 Z M 232.371094 143.027344 C 230.292969 141.535156 226.71875 142.167969 223.269531 142.328125 C 215.015625 142.710938 206.410156 142.566406 197.714844 142.675781 C 189.84375 142.777344 181.6875 143.371094 173.5625 143.027344 C 157.597656 142.359375 141.550781 141.914062 128.054688 143.378906 C 127.082031 145.445312 127.242188 148.644531 127.003906 151.445312 C 163.175781 151.445312 199.347656 151.445312 235.523438 151.445312 C 236.230469 146.488281 234.339844 144.445312 232.371094 143.027344 Z M 101.796875 139.523438 C 99.730469 142.128906 97.214844 144.28125 95.496094 147.234375 C 100.167969 153.246094 105.96875 159.820312 111.601562 164.769531 C 113.523438 166.457031 115.4375 169.261719 117.203125 168.976562 C 117.203125 163.953125 117.203125 158.925781 117.203125 153.898438 C 111.570312 149.605469 106.878906 144.367188 101.796875 139.523438 Z M 264.578125 139.871094 C 267.03125 140.289062 270.285156 148.476562 272.628906 148.289062 C 272.898438 148.265625 275.277344 145.085938 275.78125 144.429688 C 279.070312 140.152344 282.171875 135.183594 284.179688 131.105469 C 280.503906 129.296875 277.703125 126.609375 274.378906 124.445312 C 271.824219 130.300781 267.800781 134.6875 264.578125 139.871094 Z M 91.296875 123.042969 C 87.871094 124.636719 84.671875 126.457031 82.195312 129.003906 C 85.363281 134.59375 89.027344 139.691406 93.046875 144.429688 C 96.171875 142.535156 97.742188 139.082031 100.398438 136.714844 C 97.355469 132.167969 93.96875 127.960938 91.296875 123.042969 Z M 276.128906 122.339844 C 279.539062 124.300781 282.253906 126.960938 285.933594 128.652344 C 286.023438 127.574219 286.691406 127.074219 286.980469 126.199219 C 283.757812 123.816406 280.96875 121 277.53125 118.835938 C 277.507812 120.449219 276.535156 121.109375 276.128906 122.339844 Z M 79.394531 124.796875 C 79.867188 125.140625 80.09375 125.730469 80.445312 126.199219 C 84.105469 125.074219 85.722656 121.898438 89.546875 120.9375 C 89.480469 119.367188 88.4375 118.773438 87.796875 117.78125 C 85.210938 120.332031 81.480469 121.742188 79.394531 124.796875 Z M 278.929688 116.378906 C 282.335938 118.578125 285.0625 121.457031 288.730469 123.394531 C 290.539062 119.125 292.679688 115.191406 293.984375 110.417969 C 290.96875 108.175781 286.917969 106.976562 283.832031 104.808594 C 282.21875 108.6875 280.085938 112.042969 278.929688 116.378906 Z M 80.445312 103.054688 C 77.136719 103.484375 74.773438 104.855469 71.691406 105.511719 C 72.808594 111.871094 75.105469 117.050781 77.996094 121.640625 C 80.78125 119.40625 83.953125 117.558594 86.746094 115.328125 C 84.339844 111.542969 82.304688 107.382812 80.445312 103.054688 Z M 285.230469 102.351562 C 288.84375 103.527344 291.734375 105.421875 295.035156 106.910156 C 295.382812 103.289062 294.492188 100.910156 293.28125 98.847656 C 289.859375 98.105469 286.023438 99.363281 285.230469 102.351562 Z M 74.144531 94.636719 C 70.648438 94.761719 71.988281 99.726562 70.992188 102.351562 C 73.566406 101.65625 75.878906 100.703125 78.34375 99.898438 C 77.457031 97.628906 75.511719 96.425781 74.144531 94.636719 Z M 296.082031 97.796875 C 297.734375 99.414062 297.992188 102.429688 298.535156 105.160156 C 300.601562 103.492188 303.75 102.902344 306.234375 101.652344 C 306.0625 97.734375 304.609375 95.101562 303.085938 92.535156 C 301.101562 94.640625 298.289062 95.910156 296.082031 97.796875 Z M 62.242188 89.03125 C 61.128906 90.839844 59.949219 92.578125 59.089844 94.636719 C 62.367188 95.566406 65.363281 96.773438 68.191406 98.144531 C 68.796875 96.296875 69.214844 94.261719 69.941406 92.535156 C 67.414062 91.328125 65.511719 89.496094 62.242188 89.03125 Z M 286.632812 85.523438 C 283.921875 86.082031 281.941406 87.371094 280.679688 89.378906 C 282.351562 91.796875 282.839844 95.398438 284.53125 97.796875 C 285.707031 96.285156 288.164062 96.058594 290.132812 95.339844 C 289.292969 91.742188 288.484375 88.109375 286.632812 85.523438 Z M 118.601562 84.121094 C 118.601562 84.472656 118.601562 84.820312 118.601562 85.175781 C 118.847656 89.0625 118.28125 94.773438 118.601562 98.847656 C 118.761719 100.871094 118.722656 103.9375 121.402344 103.757812 C 122.203125 97.78125 121.421875 90.21875 122.101562 84.121094 C 120.933594 84.121094 119.765625 84.121094 118.601562 84.121094 Z M 239.371094 103.054688 C 241.054688 101.816406 240.984375 98.476562 241.125 95.691406 C 241.347656 91.1875 241.46875 85.652344 240.421875 82.367188 C 239.207031 82.648438 239.078125 81.847656 237.972656 82.019531 C 238.746094 88.726562 237.949219 97 239.371094 103.054688 Z M 74.492188 82.367188 C 74.746094 85.894531 73.871094 88.289062 73.792969 91.484375 C 76.5 90.742188 76.820312 93.929688 78.34375 93.238281 C 78.34375 89.613281 78.34375 85.988281 78.34375 82.367188 C 77.625 81.824219 75.210938 81.824219 74.492188 82.367188 Z M 126.652344 47.652344 C 125.484375 62.199219 125.53125 78.175781 124.902344 93.9375 C 124.269531 109.789062 124.75 126.101562 126.652344 140.222656 C 159.359375 138.429688 196.332031 140.132812 231.671875 139.171875 C 236.898438 108.898438 235.941406 70.34375 229.570312 42.042969 C 198.042969 37.71875 151.152344 36.300781 126.652344 47.652344 Z M 164.808594 32.226562 C 159.785156 32.800781 152.277344 31.921875 151.855469 37.484375 C 168.949219 35.535156 190.675781 35.34375 208.566406 36.433594 C 208.753906 34.261719 208.402344 32.628906 207.867188 31.175781 C 194.441406 28.246094 177.519531 30.773438 164.808594 32.226562 Z M 212.769531 35.382812 C 220.101562 37.085938 229.914062 34.761719 233.070312 39.589844 C 234.503906 41.777344 234.199219 45.445312 234.820312 49.054688 C 236.210938 57.121094 239.121094 69.332031 238.671875 77.808594 C 245.789062 78.339844 245.84375 85.234375 245.324219 95.691406 C 245.039062 101.449219 245.035156 107.738281 239.371094 107.261719 C 238.9375 118.863281 237.175781 129.140625 235.523438 139.523438 C 237.800781 142.148438 239.722656 145.132812 239.371094 150.390625 C 241.234375 149.980469 244.292969 150.929688 246.726562 150.390625 C 250.3125 149.597656 256.480469 143.378906 258.628906 140.925781 C 261.988281 137.074219 265.195312 132.089844 267.378906 128.652344 C 271.378906 122.355469 274.363281 115.503906 277.878906 107.613281 C 279.09375 104.886719 280.972656 101.542969 281.03125 100.25 C 281.207031 96.292969 276.277344 92.117188 276.480469 88.679688 C 276.6875 85.160156 283.410156 80.847656 289.082031 81.664062 C 291.941406 84.648438 292.582031 89.847656 294.332031 93.9375 C 298.335938 93.121094 299.648438 87.742188 304.136719 88.328125 C 307.21875 88.734375 311.28125 97.628906 310.4375 102.003906 C 309.433594 107.199219 302.546875 106.667969 299.234375 109.367188 C 288.328125 139.234375 269.636719 161.300781 248.125 180.546875 C 247.664062 209.757812 249.050781 241.019531 247.421875 269.609375 C 245.789062 271.011719 241.757812 270.011719 239.023438 270.3125 C 238.117188 273.496094 237.222656 276.691406 235.171875 278.726562 C 237.136719 283.300781 234.714844 288.199219 232.019531 290.296875 C 234.640625 294.53125 232.914062 299.8125 229.570312 301.867188 C 232.0625 305.660156 229.621094 310.460938 226.769531 312.039062 C 230.980469 319.90625 220.859375 321.507812 216.621094 324.3125 C 217.488281 327.011719 220.769531 326.925781 222.21875 329.21875 C 223.269531 330.875 223.441406 333 223.621094 335.882812 C 221.292969 338.273438 212.734375 337.972656 206.816406 337.984375 C 202.171875 337.992188 198.273438 337.582031 197.015625 334.832031 C 196.546875 328.050781 200.472656 325.671875 205.765625 324.660156 C 203.570312 322.300781 199.207031 322.113281 197.367188 319.402344 C 198.351562 315.558594 194.769531 313.449219 195.265625 309.582031 C 195.503906 307.699219 196.335938 306.609375 198.066406 305.375 C 195.183594 302.765625 195.105469 295.136719 199.464844 294.15625 C 196.691406 292.457031 196.097656 286.5625 199.464844 285.039062 C 197.984375 283.402344 196.195312 279.609375 198.414062 277.324219 C 196.625 275.917969 193.890625 273.730469 195.265625 270.3125 C 185.695312 270.3125 176.128906 270.3125 166.558594 270.3125 C 165.972656 272.996094 165.9375 276.234375 163.757812 277.324219 C 165.628906 280.820312 163.6875 285.660156 161.660156 287.492188 C 163.066406 289.648438 164.082031 295.792969 161.660156 297.660156 C 165.679688 300.121094 164.753906 307.28125 160.957031 309.234375 C 164.511719 315.160156 158.507812 319.59375 153.257812 320.101562 C 153.617188 323.914062 159.125 325.316406 159.558594 329.21875 C 159.734375 330.78125 159.578125 332.582031 158.160156 333.777344 C 151.820312 333.429688 133.460938 337.457031 131.902344 330.273438 C 130.792969 325.160156 136.011719 320.816406 141.703125 320.453125 C 138.832031 318.65625 135.496094 317.324219 134.003906 314.140625 C 136.4375 308.375 127.808594 307.6875 130.503906 301.867188 L 131.902344 300.464844 C 131.691406 298.234375 125.53125 296.792969 127.351562 291 C 127.355469 290.992188 129.113281 289.601562 129.105469 289.246094 C 129.066406 287.65625 122.257812 281.101562 128.054688 278.378906 C 126.03125 276.546875 123.894531 274.828125 124.550781 270.3125 C 122.027344 270.035156 118.289062 270.976562 116.851562 269.609375 C 115.226562 239.160156 116.609375 205.6875 116.148438 173.886719 C 100.195312 161.796875 86.542969 145.234375 75.542969 126.898438 C 71.03125 119.375 68.007812 111.519531 66.792969 102.003906 C 63.921875 98.914062 56 100.078125 54.890625 96.042969 C 54.128906 93.277344 58.5625 85.460938 60.839844 84.820312 C 64.832031 83.703125 67.160156 86.746094 70.292969 87.976562 C 68.113281 79.472656 76.730469 75.03125 81.84375 80.265625 C 82.230469 84.9375 82.773438 92.273438 81.496094 96.394531 C 90.816406 112.28125 99.007812 132.660156 113.351562 145.484375 C 116.441406 148.246094 118.496094 150.746094 123.152344 150.390625 C 123.921875 148.59375 123.316406 145.414062 124.203125 143.730469 C 119.359375 135.605469 121.5 120.488281 120.703125 108.316406 C 111.496094 106.121094 114.984375 91.542969 114.75 81.664062 C 116.066406 80.292969 118.167969 79.714844 121.050781 79.914062 C 121.578125 72.007812 121.378906 64.542969 121.75 56.070312 C 121.894531 52.847656 121.597656 48.503906 122.453125 46.25 C 123.863281 42.523438 132.910156 39.652344 137.855469 38.539062 C 141.457031 37.722656 144.710938 38.113281 148.007812 37.136719 C 148.222656 27.121094 164.316406 27.859375 175.664062 26.96875 C 182.648438 26.414062 191.414062 25.421875 198.765625 25.914062 C 206.757812 26.449219 213.164062 27.402344 212.769531 35.382812 "/>
</g>
<path style=" stroke:none;fill-rule:evenodd;fill:rgb(91.758728%,13.328552%,16.859436%);fill-opacity:1;" d="M 207.867188 31.175781 C 208.402344 32.625 208.753906 34.257812 208.566406 36.433594 C 190.675781 35.34375 168.949219 35.53125 151.859375 37.484375 C 152.277344 31.917969 159.785156 32.796875 164.808594 32.226562 C 177.523438 30.773438 194.445312 28.246094 207.867188 31.175781 "/>
<path style=" stroke:none;fill-rule:evenodd;fill:rgb(38.42926%,39.608765%,49.409485%);fill-opacity:1;" d="M 215.570312 103.40625 C 216.523438 105.136719 219.5625 104.78125 221.519531 105.507812 C 223.351562 104.304688 224.332031 102.25 224.320312 99.199219 C 221.339844 95.304688 215.292969 98.753906 215.570312 103.40625 Z M 134.003906 97.445312 C 132.738281 98.867188 132.238281 101.054688 132.253906 103.757812 C 133.351562 105.171875 136.730469 105.570312 138.90625 104.808594 C 141.320312 101.304688 138.75 95.984375 134.003906 97.445312 Z M 148.707031 91.832031 C 144.652344 88.464844 141.441406 92.527344 140.65625 96.390625 C 141.984375 97.746094 143.175781 99.242188 145.207031 99.898438 C 147.765625 98.574219 150.105469 95.007812 148.707031 91.832031 Z M 214.519531 86.574219 C 212.386719 86.402344 209.183594 89.410156 209.617188 92.183594 C 209.960938 94.378906 212.699219 94.941406 214.867188 96.039062 C 220.011719 94.835938 218.742188 86.914062 214.519531 86.574219 Z M 229.222656 88.328125 C 227.484375 82.609375 217.964844 88.214844 222.570312 94.289062 C 226.351562 95.390625 230.34375 92.015625 229.222656 88.328125 Z M 131.203125 87.625 C 129.046875 93.125 133.621094 95.597656 138.203125 93.589844 C 142.53125 88.816406 134.933594 83.414062 131.203125 87.625 Z M 186.164062 79.914062 C 183.167969 81.925781 178.195312 81.195312 174.960938 79.5625 C 174.34375 78.429688 174.828125 76.191406 172.863281 76.40625 C 170.164062 77.363281 172.183594 81.273438 172.863281 82.015625 C 177.421875 87.019531 194.5625 83.9375 190.714844 75.351562 C 187.5625 74.820312 188.308594 78.472656 186.164062 79.914062 Z M 220.121094 66.238281 C 215.929688 60.570312 205.828125 57.292969 199.464844 61.679688 C 196.855469 63.480469 190.636719 72.773438 194.914062 77.105469 C 199.660156 81.914062 203.492188 72.996094 207.167969 72.546875 C 216.664062 71.394531 217.265625 87.609375 225.019531 79.5625 C 223.316406 74.414062 222.828125 69.90625 220.121094 66.238281 Z M 156.40625 72.546875 C 159.839844 73.121094 163.566406 81.914062 168.308594 77.105469 C 172.589844 72.773438 166.367188 63.476562 163.757812 61.679688 C 157.394531 57.289062 147.296875 60.570312 143.105469 66.238281 C 140.390625 69.90625 139.910156 74.414062 138.203125 79.5625 C 147.175781 87.210938 146.417969 70.890625 156.40625 72.546875 Z M 229.570312 42.042969 C 235.941406 70.34375 236.898438 108.898438 231.671875 139.171875 C 196.332031 140.132812 159.359375 138.425781 126.652344 140.222656 C 124.75 126.101562 124.269531 109.789062 124.902344 93.9375 C 125.53125 78.175781 125.484375 62.199219 126.652344 47.652344 C 151.152344 36.300781 198.042969 37.71875 229.570312 42.042969 "/>
<path style=" stroke:none;fill-rule:evenodd;fill:rgb(6.269836%,5.879211%,5.099487%);fill-opacity:1;" d="M 146.605469 66.9375 C 144.402344 70.226562 142.347656 73.660156 141.703125 78.507812 C 145.941406 77.144531 146.257812 71.851562 150.457031 70.445312 C 147.9375 70.515625 148.722656 67.273438 146.605469 66.9375 Z M 157.457031 70.09375 C 161.609375 70.496094 161.546875 75.113281 165.859375 75.351562 C 167.339844 70.460938 164.144531 64.863281 159.90625 63.433594 C 160.410156 66.972656 158.402344 68.003906 157.457031 70.09375 Z M 150.105469 64.484375 C 149.953125 65.691406 150.246094 66.449219 150.457031 67.289062 C 153.523438 69.140625 157.855469 67.277344 156.757812 62.730469 C 153.980469 62.753906 152.101562 63.675781 150.105469 64.484375 Z M 138.203125 79.5625 C 139.910156 74.414062 140.390625 69.910156 143.105469 66.238281 C 147.296875 60.570312 157.394531 57.292969 163.757812 61.679688 C 166.367188 63.480469 172.589844 72.773438 168.308594 77.109375 C 163.566406 81.910156 159.839844 73.117188 156.40625 72.550781 C 146.417969 70.890625 147.175781 87.210938 138.203125 79.5625 "/>
<path style=" stroke:none;fill-rule:evenodd;fill:rgb(6.269836%,5.879211%,5.099487%);fill-opacity:1;" d="M 212.769531 70.796875 C 217.371094 71.679688 217.164062 77.378906 221.519531 78.507812 C 220.453125 73.730469 219.339844 69.003906 215.570312 66.9375 C 215.457031 69.050781 214.078125 69.886719 212.769531 70.796875 Z M 197.367188 75.351562 C 201.675781 75.113281 201.617188 70.496094 205.765625 70.09375 C 204.496094 68.210938 203.230469 66.324219 202.964844 63.433594 C 199.144531 65.164062 195.820312 70.507812 197.367188 75.351562 Z M 212.769531 67.289062 C 212.980469 66.449219 213.273438 65.6875 213.117188 64.484375 C 211.125 63.675781 209.246094 62.753906 206.46875 62.730469 C 205.371094 67.277344 209.699219 69.140625 212.769531 67.289062 Z M 225.019531 79.5625 C 217.265625 87.609375 216.664062 71.398438 207.167969 72.550781 C 203.492188 72.996094 199.660156 81.914062 194.914062 77.105469 C 190.636719 72.773438 196.855469 63.480469 199.464844 61.679688 C 205.828125 57.292969 215.929688 60.570312 220.121094 66.238281 C 222.828125 69.902344 223.316406 74.414062 225.019531 79.5625 "/>
<path style=" stroke:none;fill-rule:evenodd;fill:rgb(75.689697%,83.918762%,92.549133%);fill-opacity:1;" d="M 156.757812 62.730469 C 157.855469 67.273438 153.523438 69.140625 150.457031 67.289062 C 150.246094 66.449219 149.953125 65.6875 150.105469 64.484375 C 152.101562 63.675781 153.980469 62.753906 156.757812 62.730469 "/>
<path style=" stroke:none;fill-rule:evenodd;fill:rgb(75.689697%,83.918762%,92.549133%);fill-opacity:1;" d="M 206.46875 62.730469 C 209.246094 62.753906 211.125 63.675781 213.117188 64.484375 C 213.273438 65.6875 212.980469 66.449219 212.769531 67.289062 C 209.699219 69.140625 205.371094 67.273438 206.46875 62.730469 "/>
<path style=" stroke:none;fill-rule:evenodd;fill:rgb(98.039246%,98.429871%,98.429871%);fill-opacity:1;" d="M 159.90625 63.433594 C 164.144531 64.863281 167.339844 70.460938 165.859375 75.355469 C 161.546875 75.117188 161.609375 70.496094 157.457031 70.09375 C 158.402344 68.003906 160.410156 66.972656 159.90625 63.433594 "/>
<path style=" stroke:none;fill-rule:evenodd;fill:rgb(98.039246%,98.429871%,98.429871%);fill-opacity:1;" d="M 202.964844 63.433594 C 203.230469 66.324219 204.496094 68.210938 205.765625 70.09375 C 201.613281 70.496094 201.675781 75.117188 197.367188 75.355469 C 195.816406 70.507812 199.144531 65.167969 202.964844 63.433594 "/>
<path style=" stroke:none;fill-rule:evenodd;fill:rgb(98.039246%,98.429871%,98.429871%);fill-opacity:1;" d="M 150.457031 70.445312 C 146.257812 71.847656 145.941406 77.144531 141.703125 78.507812 C 142.347656 73.660156 144.402344 70.226562 146.605469 66.9375 C 148.722656 67.273438 147.9375 70.515625 150.457031 70.445312 "/>
<path style=" stroke:none;fill-rule:evenodd;fill:rgb(98.039246%,98.429871%,98.429871%);fill-opacity:1;" d="M 215.570312 66.9375 C 219.339844 69.003906 220.453125 73.734375 221.519531 78.507812 C 217.164062 77.378906 217.371094 71.679688 212.769531 70.796875 C 214.078125 69.886719 215.460938 69.050781 215.570312 66.9375 "/>
<path style=" stroke:none;fill-rule:evenodd;fill:rgb(6.269836%,5.879211%,5.099487%);fill-opacity:1;" d="M 190.714844 75.351562 C 194.5625 83.9375 177.421875 87.019531 172.863281 82.015625 C 172.183594 81.273438 170.164062 77.363281 172.863281 76.40625 C 174.828125 76.191406 174.34375 78.425781 174.960938 79.5625 C 178.195312 81.195312 183.167969 81.921875 186.164062 79.910156 C 188.308594 78.472656 187.5625 74.816406 190.714844 75.351562 "/>
<path style=" stroke:none;fill-rule:evenodd;fill:rgb(97.648621%,88.238525%,1.959229%);fill-opacity:1;" d="M 78.34375 82.367188 C 78.34375 85.988281 78.34375 89.613281 78.34375 93.238281 C 76.820312 93.929688 76.5 90.738281 73.792969 91.484375 C 73.871094 88.289062 74.746094 85.894531 74.492188 82.367188 C 75.210938 81.824219 77.625 81.824219 78.34375 82.367188 "/>
<path style=" stroke:none;fill-rule:evenodd;fill:rgb(91.758728%,13.328552%,16.859436%);fill-opacity:1;" d="M 237.972656 82.015625 C 239.078125 81.847656 239.210938 82.648438 240.421875 82.367188 C 241.46875 85.652344 241.347656 91.1875 241.125 95.691406 C 240.984375 98.476562 241.050781 101.816406 239.371094 103.054688 C 237.949219 97 238.746094 88.722656 237.972656 82.015625 "/>
<path style=" stroke:none;fill-rule:evenodd;fill:rgb(91.758728%,13.328552%,16.859436%);fill-opacity:1;" d="M 122.101562 84.117188 C 121.421875 90.214844 122.203125 97.777344 121.402344 103.753906 C 118.722656 103.941406 118.761719 100.871094 118.601562 98.84375 C 118.28125 94.769531 118.847656 89.0625 118.601562 85.171875 C 118.601562 84.820312 118.601562 84.472656 118.601562 84.117188 C 119.769531 84.117188 120.933594 84.117188 122.101562 84.117188 "/>
<path style=" stroke:none;fill-rule:evenodd;fill:rgb(97.648621%,88.238525%,1.959229%);fill-opacity:1;" d="M 290.132812 95.339844 C 288.167969 96.058594 285.707031 96.285156 284.53125 97.796875 C 282.839844 95.398438 282.351562 91.796875 280.679688 89.378906 C 281.945312 87.371094 283.917969 86.078125 286.632812 85.523438 C 288.484375 88.109375 289.292969 91.742188 290.132812 95.339844 "/>
<path style=" stroke:none;fill-rule:evenodd;fill:rgb(87.449646%,87.449646%,86.669922%);fill-opacity:1;" d="M 133.652344 91.136719 C 134.859375 91.285156 135.617188 90.996094 136.453125 90.785156 C 136.371094 89.464844 135.019531 89.414062 134.003906 89.03125 C 134.011719 89.855469 133.402344 90.0625 133.652344 91.136719 Z M 138.203125 93.589844 C 133.621094 95.597656 129.046875 93.125 131.203125 87.628906 C 134.933594 83.417969 142.53125 88.816406 138.203125 93.589844 "/>
<path style=" stroke:none;fill-rule:evenodd;fill:rgb(87.449646%,87.449646%,86.669922%);fill-opacity:1;" d="M 224.671875 91.835938 C 225.324219 91.085938 226.699219 91.058594 226.421875 89.378906 C 225.972656 88.894531 224.902344 89.03125 223.972656 89.027344 C 224.203125 89.964844 224.117188 91.21875 224.671875 91.835938 Z M 222.570312 94.289062 C 217.964844 88.214844 227.484375 82.609375 229.222656 88.328125 C 230.34375 92.015625 226.351562 95.390625 222.570312 94.289062 "/>
<path style=" stroke:none;fill-rule:evenodd;fill:rgb(87.449646%,87.449646%,86.669922%);fill-opacity:1;" d="M 212.070312 91.835938 C 212.953125 92.351562 213.632812 93.070312 214.867188 93.238281 C 217.273438 90.617188 212.199219 87.609375 212.070312 91.835938 Z M 214.867188 96.042969 C 212.699219 94.941406 209.960938 94.382812 209.617188 92.1875 C 209.183594 89.410156 212.386719 86.402344 214.519531 86.574219 C 218.742188 86.914062 220.011719 94.835938 214.867188 96.042969 "/>
<path style=" stroke:none;fill-rule:evenodd;fill:rgb(97.648621%,88.238525%,1.959229%);fill-opacity:1;" d="M 69.941406 92.535156 C 69.214844 94.261719 68.796875 96.296875 68.191406 98.148438 C 65.363281 96.773438 62.367188 95.566406 59.089844 94.640625 C 59.949219 92.578125 61.128906 90.839844 62.242188 89.03125 C 65.511719 89.496094 67.414062 91.328125 69.941406 92.535156 "/>
<path style=" stroke:none;fill-rule:evenodd;fill:rgb(87.449646%,87.449646%,86.669922%);fill-opacity:1;" d="M 134.003906 89.03125 C 135.019531 89.414062 136.371094 89.464844 136.453125 90.785156 C 135.617188 90.996094 134.855469 91.289062 133.652344 91.136719 C 133.402344 90.0625 134.011719 89.855469 134.003906 89.03125 "/>
<path style=" stroke:none;fill-rule:evenodd;fill:rgb(87.449646%,87.449646%,86.669922%);fill-opacity:1;" d="M 223.972656 89.03125 C 224.898438 89.035156 225.96875 88.898438 226.421875 89.382812 C 226.699219 91.058594 225.324219 91.089844 224.667969 91.835938 C 224.117188 91.21875 224.203125 89.964844 223.972656 89.03125 "/>
<path style=" stroke:none;fill-rule:evenodd;fill:rgb(87.449646%,87.449646%,86.669922%);fill-opacity:1;" d="M 214.871094 93.234375 C 213.632812 93.070312 212.953125 92.351562 212.070312 91.832031 C 212.199219 87.609375 217.273438 90.617188 214.871094 93.234375 "/>
<path style=" stroke:none;fill-rule:evenodd;fill:rgb(87.449646%,87.449646%,86.669922%);fill-opacity:1;" d="M 145.558594 96.390625 C 145.324219 95.109375 146.3125 95.046875 146.257812 93.9375 C 143.648438 93.15625 142.964844 96.695312 145.558594 96.390625 Z M 145.207031 99.898438 C 143.175781 99.242188 141.984375 97.746094 140.65625 96.390625 C 141.441406 92.527344 144.652344 88.464844 148.707031 91.832031 C 150.105469 95.007812 147.765625 98.574219 145.207031 99.898438 "/>
<path style=" stroke:none;fill-rule:evenodd;fill:rgb(97.648621%,88.238525%,1.959229%);fill-opacity:1;" d="M 303.085938 92.535156 C 304.609375 95.101562 306.0625 97.734375 306.234375 101.652344 C 303.746094 102.898438 300.605469 103.492188 298.535156 105.160156 C 297.992188 102.429688 297.734375 99.414062 296.082031 97.796875 C 298.285156 95.910156 301.101562 94.640625 303.085938 92.535156 "/>
<path style=" stroke:none;fill-rule:evenodd;fill:rgb(87.449646%,87.449646%,86.669922%);fill-opacity:1;" d="M 146.257812 93.9375 C 146.3125 95.046875 145.324219 95.109375 145.554688 96.394531 C 142.960938 96.695312 143.648438 93.15625 146.257812 93.9375 "/>
<path style=" stroke:none;fill-rule:evenodd;fill:rgb(97.648621%,88.238525%,1.959229%);fill-opacity:1;" d="M 78.34375 99.898438 C 75.882812 100.703125 73.566406 101.65625 70.992188 102.351562 C 71.988281 99.726562 70.648438 94.761719 74.144531 94.640625 C 75.511719 96.425781 77.457031 97.628906 78.34375 99.898438 "/>
<path style=" stroke:none;fill-rule:evenodd;fill:rgb(87.449646%,87.449646%,86.669922%);fill-opacity:1;" d="M 135.402344 102.003906 C 136.066406 101.925781 136.175781 102.398438 136.804688 102.351562 C 136.992188 101.113281 136.507812 100.550781 135.753906 100.25 C 135.898438 101.09375 135.113281 101.011719 135.402344 102.003906 Z M 138.90625 104.808594 C 136.730469 105.570312 133.351562 105.171875 132.253906 103.757812 C 132.238281 101.050781 132.738281 98.867188 134.003906 97.445312 C 138.746094 95.984375 141.320312 101.304688 138.90625 104.808594 "/>
<path style=" stroke:none;fill-rule:evenodd;fill:rgb(87.449646%,87.449646%,86.669922%);fill-opacity:1;" d="M 218.71875 102 C 219.171875 102.484375 220.238281 102.347656 221.171875 102.351562 C 220.917969 101.28125 221.773438 101.320312 221.519531 100.25 C 219.734375 99.980469 219.316406 101.082031 218.71875 102 Z M 224.320312 99.195312 C 224.332031 102.246094 223.351562 104.304688 221.519531 105.507812 C 219.5625 104.78125 216.523438 105.136719 215.570312 103.40625 C 215.292969 98.75 221.339844 95.304688 224.320312 99.195312 "/>
<path style=" stroke:none;fill-rule:evenodd;fill:rgb(97.648621%,88.238525%,1.959229%);fill-opacity:1;" d="M 293.285156 98.847656 C 294.492188 100.910156 295.386719 103.289062 295.035156 106.914062 C 291.734375 105.421875 288.847656 103.523438 285.230469 102.351562 C 286.027344 99.359375 289.863281 98.105469 293.285156 98.847656 "/>
<path style=" stroke:none;fill-rule:evenodd;fill:rgb(87.449646%,87.449646%,86.669922%);fill-opacity:1;" d="M 135.753906 100.25 C 136.507812 100.546875 136.992188 101.113281 136.804688 102.351562 C 136.175781 102.398438 136.066406 101.925781 135.402344 102.003906 C 135.113281 101.011719 135.898438 101.09375 135.753906 100.25 "/>
<path style=" stroke:none;fill-rule:evenodd;fill:rgb(87.449646%,87.449646%,86.669922%);fill-opacity:1;" d="M 221.519531 100.25 C 221.773438 101.320312 220.917969 101.28125 221.171875 102.351562 C 220.242188 102.351562 219.171875 102.484375 218.71875 102.003906 C 219.316406 101.082031 219.734375 99.980469 221.519531 100.25 "/>
<path style=" stroke:none;fill-rule:evenodd;fill:rgb(61.178589%,56.469727%,56.858826%);fill-opacity:1;" d="M 86.746094 115.328125 C 83.953125 117.558594 80.78125 119.40625 77.996094 121.640625 C 75.105469 117.054688 72.808594 111.871094 71.691406 105.507812 C 74.773438 104.855469 77.136719 103.484375 80.445312 103.054688 C 82.304688 107.382812 84.339844 111.542969 86.746094 115.328125 "/>
<path style=" stroke:none;fill-rule:evenodd;fill:rgb(61.178589%,56.469727%,56.858826%);fill-opacity:1;" d="M 283.832031 104.808594 C 286.917969 106.976562 290.96875 108.175781 293.984375 110.417969 C 292.679688 115.191406 290.539062 119.125 288.730469 123.394531 C 285.0625 121.457031 282.339844 118.578125 278.929688 116.378906 C 280.085938 112.042969 282.21875 108.6875 283.832031 104.808594 "/>
<path style=" stroke:none;fill-rule:evenodd;fill:rgb(38.42926%,39.608765%,49.409485%);fill-opacity:1;" d="M 87.796875 117.78125 C 88.4375 118.773438 89.480469 119.367188 89.546875 120.9375 C 85.722656 121.898438 84.105469 125.070312 80.445312 126.199219 C 80.09375 125.730469 79.867188 125.136719 79.394531 124.792969 C 81.480469 121.742188 85.210938 120.332031 87.796875 117.78125 "/>
<path style=" stroke:none;fill-rule:evenodd;fill:rgb(38.42926%,39.608765%,49.409485%);fill-opacity:1;" d="M 277.53125 118.832031 C 280.96875 121 283.761719 123.8125 286.984375 126.195312 C 286.691406 127.074219 286.023438 127.574219 285.933594 128.652344 C 282.253906 126.960938 279.542969 124.300781 276.128906 122.339844 C 276.535156 121.109375 277.507812 120.445312 277.53125 118.832031 "/>
<path style=" stroke:none;fill-rule:evenodd;fill:rgb(61.178589%,56.469727%,56.858826%);fill-opacity:1;" d="M 100.398438 136.714844 C 97.742188 139.082031 96.171875 142.535156 93.046875 144.429688 C 89.027344 139.6875 85.363281 134.59375 82.195312 129.003906 C 84.671875 126.457031 87.871094 124.636719 91.296875 123.042969 C 93.972656 127.960938 97.355469 132.164062 100.398438 136.714844 "/>
<path style=" stroke:none;fill-rule:evenodd;fill:rgb(61.178589%,56.469727%,56.858826%);fill-opacity:1;" d="M 274.378906 124.445312 C 277.703125 126.609375 280.507812 129.292969 284.183594 131.105469 C 282.171875 135.183594 279.070312 140.152344 275.78125 144.429688 C 275.277344 145.085938 272.898438 148.265625 272.628906 148.285156 C 270.285156 148.476562 267.035156 140.289062 264.578125 139.871094 C 267.804688 134.6875 271.824219 130.300781 274.378906 124.445312 "/>
<path style=" stroke:none;fill-rule:evenodd;fill:rgb(38.42926%,39.608765%,49.409485%);fill-opacity:1;" d="M 117.203125 153.898438 C 117.203125 158.925781 117.203125 163.949219 117.203125 168.976562 C 115.4375 169.261719 113.523438 166.457031 111.601562 164.769531 C 105.96875 159.820312 100.167969 153.246094 95.496094 147.234375 C 97.214844 144.28125 99.730469 142.125 101.796875 139.519531 C 106.878906 144.367188 111.570312 149.605469 117.203125 153.898438 "/>
<path style=" stroke:none;fill-rule:evenodd;fill:rgb(61.178589%,56.469727%,56.858826%);fill-opacity:1;" d="M 235.523438 151.441406 C 199.347656 151.441406 163.175781 151.441406 127.003906 151.441406 C 127.242188 148.644531 127.082031 145.445312 128.054688 143.378906 C 141.550781 141.910156 157.597656 142.359375 173.5625 143.027344 C 181.6875 143.367188 189.84375 142.777344 197.714844 142.675781 C 206.410156 142.566406 215.015625 142.710938 223.269531 142.328125 C 226.71875 142.167969 230.292969 141.535156 232.371094 143.027344 C 234.34375 144.445312 236.230469 146.488281 235.523438 151.441406 "/>
<path style=" stroke:none;fill-rule:evenodd;fill:rgb(38.42926%,39.608765%,49.409485%);fill-opacity:1;" d="M 270.53125 151.09375 C 263.117188 159.5625 256.371094 168.703125 247.074219 175.285156 C 247.074219 168.390625 247.074219 161.496094 247.074219 154.597656 C 253.492188 151.558594 258.289062 146.898438 262.828125 141.976562 C 265.398438 145.011719 268.277344 147.738281 270.53125 151.09375 "/>
<path style=" stroke:none;fill-rule:evenodd;fill:rgb(38.42926%,39.608765%,49.409485%);fill-opacity:1;" d="M 120.703125 154.25 C 124.667969 154.25 128.636719 154.25 132.605469 154.25 C 134.742188 184.015625 131.507812 217.453125 135.402344 245.765625 C 139.453125 247.988281 144.203125 246.84375 148.707031 247.171875 C 174.445312 249.035156 202.632812 247.675781 227.121094 246.46875 C 229.96875 240.21875 229.585938 232.398438 229.921875 224.726562 C 230.9375 201.546875 226.945312 177.269531 227.46875 154.25 C 233.070312 154.25 238.671875 154.25 244.273438 154.25 C 244.273438 191.652344 244.273438 229.050781 244.273438 266.453125 C 234.042969 266.390625 224.34375 266.484375 213.46875 266.453125 C 212.820312 263.816406 213.132812 259.109375 211.367188 256.988281 C 208.929688 254.058594 199.480469 254.96875 192.816406 254.53125 C 184.355469 253.980469 170.242188 253.125 160.957031 253.832031 C 152.332031 254.488281 140.640625 256.894531 142.757812 266.453125 C 135.171875 266.453125 127.585938 266.453125 120 266.453125 C 120 229.402344 120 192.351562 120 155.300781 C 119.988281 154.703125 120.261719 154.394531 120.703125 154.25 "/>
<path style=" stroke:none;fill-rule:evenodd;fill:rgb(87.449646%,87.449646%,86.669922%);fill-opacity:1;" d="M 141.003906 237.703125 C 142.050781 246.496094 157.503906 238.15625 148.707031 231.742188 C 143.542969 230.863281 140.546875 233.851562 141.003906 237.703125 Z M 209.96875 236.648438 C 210.511719 239.535156 215.632812 241.277344 218.71875 239.101562 C 224.339844 230.164062 208.269531 227.632812 209.96875 236.648438 Z M 205.417969 163.714844 C 188.746094 164.042969 168.886719 166.664062 153.609375 163.015625 C 152.113281 161.824219 154.097656 157.148438 151.507812 157.050781 C 150.035156 158.515625 150.890625 163.125 151.507812 164.769531 C 154.710938 166.742188 159.078125 167.765625 163.410156 167.921875 C 177.191406 168.425781 194.152344 167.488281 207.515625 166.171875 C 208.972656 164.734375 211.386719 158.277344 208.21875 156.703125 C 205.429688 157.183594 207.886719 162.914062 205.417969 163.714844 Z M 135.054688 154.25 C 165.160156 154.25 195.265625 154.25 225.371094 154.25 C 224 183.71875 229.421875 215.15625 225.371094 244.011719 C 196.480469 245.117188 166.210938 246.019531 137.503906 244.011719 C 134.945312 216.242188 136.878906 182.3125 134.703125 155.300781 C 134.675781 154.800781 134.644531 154.308594 135.054688 154.25 "/>
<path style=" stroke:none;fill-rule:evenodd;fill:rgb(6.269836%,5.879211%,5.099487%);fill-opacity:1;" d="M 208.21875 156.703125 C 211.386719 158.277344 208.972656 164.734375 207.515625 166.171875 C 194.152344 167.488281 177.195312 168.425781 163.410156 167.921875 C 159.078125 167.765625 154.710938 166.742188 151.507812 164.769531 C 150.890625 163.125 150.035156 158.515625 151.507812 157.050781 C 154.097656 157.148438 152.113281 161.828125 153.609375 163.015625 C 168.886719 166.664062 188.746094 164.042969 205.417969 163.714844 C 207.886719 162.917969 205.429688 157.183594 208.21875 156.703125 "/>
<path style=" stroke:none;fill-rule:evenodd;fill:rgb(6.269836%,5.879211%,5.099487%);fill-opacity:1;" d="M 213.117188 236.296875 C 213.914062 236.90625 215.074219 237.144531 216.621094 237 C 218.535156 233.5 212.597656 232.121094 213.117188 236.296875 Z M 218.71875 239.101562 C 215.632812 241.277344 210.511719 239.535156 209.96875 236.648438 C 208.273438 227.632812 224.339844 230.164062 218.71875 239.101562 "/>
<path style=" stroke:none;fill-rule:evenodd;fill:rgb(6.269836%,5.879211%,5.099487%);fill-opacity:1;" d="M 144.15625 238.054688 C 147.082031 240.390625 149.84375 236.378906 147.304688 234.195312 C 144.648438 233.871094 144.039062 235.601562 144.15625 238.054688 Z M 148.707031 231.742188 C 157.503906 238.15625 142.050781 246.496094 141.003906 237.703125 C 140.546875 233.851562 143.542969 230.863281 148.707031 231.742188 "/>
<path style=" stroke:none;fill-rule:evenodd;fill:rgb(97.648621%,88.238525%,1.959229%);fill-opacity:1;" d="M 216.617188 237 C 215.074219 237.144531 213.914062 236.90625 213.117188 236.300781 C 212.59375 232.121094 218.535156 233.503906 216.617188 237 "/>
<path style=" stroke:none;fill-rule:evenodd;fill:rgb(97.648621%,88.238525%,1.959229%);fill-opacity:1;" d="M 147.304688 234.195312 C 149.84375 236.378906 147.082031 240.390625 144.15625 238.054688 C 144.039062 235.601562 144.648438 233.871094 147.304688 234.195312 "/>
<path style=" stroke:none;fill-rule:evenodd;fill:rgb(61.178589%,56.469727%,56.858826%);fill-opacity:1;" d="M 210.316406 266.453125 C 188.847656 266.453125 167.378906 266.453125 145.90625 266.453125 C 145.777344 264.105469 145.9375 262.042969 146.605469 260.492188 C 163.203125 254.492188 189.480469 256.878906 208.21875 259.09375 C 209.949219 260.515625 209.703125 263.914062 210.316406 266.453125 "/>
<path style=" stroke:none;fill-rule:evenodd;fill:rgb(38.42926%,39.608765%,49.409485%);fill-opacity:1;" d="M 162.007812 269.257812 C 161.96875 270.972656 162.199219 272.957031 161.660156 274.167969 C 160.667969 274.8125 158.867188 274.644531 158.507812 275.921875 C 158.796875 278.558594 161.601562 278.667969 160.609375 282.585938 C 159.511719 284.289062 157.644531 285.226562 156.40625 286.792969 C 157.589844 289.347656 160.066406 290.609375 159.210938 295.207031 C 158.5 296.367188 156.535156 296.269531 155.707031 297.3125 C 155.996094 301.320312 160.492188 299.664062 160.609375 302.921875 C 160.707031 305.660156 156.933594 305.792969 155.707031 308.53125 C 159.410156 312.886719 158.476562 314.222656 151.507812 315.542969 C 147.738281 316.261719 139.554688 316.582031 138.203125 313.089844 C 141.25 311.695312 146.316406 312.332031 149.058594 310.636719 C 144.035156 308.417969 136.390625 308.828125 134.355469 303.625 C 136.882812 301.25 142.875 302.339844 146.957031 301.519531 C 146.515625 298.269531 142.414062 299.871094 139.957031 299.414062 C 136.125 298.703125 131.226562 295.449219 131.554688 293.101562 C 132.152344 288.800781 141.332031 290.796875 146.605469 290.296875 C 143.636719 285.089844 129.855469 290.714844 130.152344 282.234375 C 132.925781 279.285156 139.792969 282.007812 143.804688 280.832031 C 142.71875 277.542969 137.84375 279.011719 134.703125 278.027344 C 131.527344 277.03125 125.246094 271.160156 130.503906 269.257812 C 134.199219 267.925781 140.765625 269.257812 146.257812 269.257812 C 152.050781 269.261719 157.414062 269.257812 162.007812 269.257812 "/>
<path style=" stroke:none;fill-rule:evenodd;fill:rgb(38.42926%,39.608765%,49.409485%);fill-opacity:1;" d="M 234.824219 269.609375 C 234.535156 272.710938 233.382812 274.945312 231.671875 276.625 C 226.753906 276.957031 220.035156 275.484375 218.371094 279.078125 C 221.335938 280.769531 226.34375 278.730469 230.621094 279.429688 C 233.179688 282.046875 232.160156 286.8125 228.871094 287.84375 C 225.207031 288.996094 218.863281 286.371094 217.671875 290.296875 C 220.070312 290.945312 224.699219 290.796875 227.121094 290.296875 C 228.0625 292.144531 229.78125 293.578125 229.574219 295.558594 C 229.070312 300.320312 221.707031 298.957031 218.371094 301.519531 C 219.679688 302.898438 222.785156 302.472656 225.371094 302.570312 C 230.871094 310.292969 217.210938 309.101562 212.769531 311.335938 C 214.882812 315.132812 224.113281 309.671875 223.972656 315.542969 C 219.332031 319.464844 209.59375 323.046875 203.316406 318.351562 C 201.542969 318.132812 204.335938 317.570312 203.667969 316.246094 C 202.832031 313.457031 198.902344 313.773438 199.46875 309.582031 C 200.355469 307.671875 203.710938 308.226562 204.71875 306.429688 C 204.125 302.929688 199.554688 303.417969 200.167969 298.714844 C 201.496094 296.769531 206.113281 298.125 206.816406 295.558594 C 206.300781 292.449219 201.320312 291.949219 201.566406 289.246094 C 202.359375 287.117188 206.363281 288.207031 206.816406 285.738281 C 206.269531 282.664062 202.230469 283.085938 201.566406 280.128906 C 202.316406 278.191406 205.65625 278.847656 206.46875 276.972656 C 205.003906 273.898438 194.808594 273.296875 201.566406 269.257812 C 212.539062 269.492188 224.433594 268.796875 234.824219 269.609375 "/>
<path style=" stroke:none;fill-rule:evenodd;fill:rgb(97.648621%,88.238525%,1.959229%);fill-opacity:1;" d="M 145.90625 319.75 C 147.167969 319.960938 148.253906 320.34375 149.40625 319.75 C 149.550781 321.417969 149.238281 322.621094 148.707031 323.609375 C 147.402344 323.628906 146.492188 323.257812 145.558594 322.910156 C 145.316406 321.496094 145.890625 320.90625 145.90625 319.75 "/>
<path style=" stroke:none;fill-rule:evenodd;fill:rgb(97.648621%,88.238525%,1.959229%);fill-opacity:1;" d="M 209.269531 323.960938 C 211.160156 324.054688 211.351562 324.261719 213.117188 323.960938 C 212.996094 325.707031 213.210938 327.792969 211.71875 328.167969 C 210.746094 326.921875 209.097656 326.355469 209.269531 323.960938 "/>
<path style=" stroke:none;fill-rule:evenodd;fill:rgb(97.648621%,88.238525%,1.959229%);fill-opacity:1;" d="M 151.507812 325.710938 C 152.710938 327.195312 154.984375 327.605469 155.359375 329.921875 C 149.0625 329.566406 141.277344 330.699219 136.105469 329.21875 C 137.605469 321.019531 146.730469 328.679688 151.507812 325.710938 "/>
<path style=" stroke:none;fill-rule:evenodd;fill:rgb(97.648621%,88.238525%,1.959229%);fill-opacity:1;" d="M 219.417969 333.429688 C 212.835938 333.164062 207.183594 334.015625 201.214844 333.429688 C 200.902344 328.445312 207.808594 327.886719 210.316406 330.621094 C 214.59375 330.335938 218.746094 328.878906 219.417969 333.429688 "/>
</g>
</svg>
