<?xml version="1.0" encoding="UTF-8"?>
<svg xmlns="http://www.w3.org/2000/svg" xmlns:xlink="http://www.w3.org/1999/xlink" width="375pt" height="374.999991pt" viewBox="0 0 375 374.999991" version="1.2">
<defs>
<clipPath id="clip1">
  <path d="M 195 321 L 238 321 L 238 337.59375 L 195 337.59375 Z M 195 321 "/>
</clipPath>
<clipPath id="clip2">
  <path d="M 131 321 L 174 321 L 174 337.59375 L 131 337.59375 Z M 131 321 "/>
</clipPath>
<clipPath id="clip3">
  <path d="M 22.5625 94 L 73 94 L 73 138 L 22.5625 138 Z M 22.5625 94 "/>
</clipPath>
<clipPath id="clip4">
  <path d="M 268 24.09375 L 278 24.09375 L 278 34 L 268 34 Z M 268 24.09375 "/>
</clipPath>
<clipPath id="clip5">
  <path d="M 95 24.09375 L 105 24.09375 L 105 34 L 95 34 Z M 95 24.09375 "/>
</clipPath>
<clipPath id="clip6">
  <path d="M 294 246 L 344.3125 246 L 344.3125 290 L 294 290 Z M 294 246 "/>
</clipPath>
</defs>
<g id="surface1">
<path style=" stroke:none;fill-rule:nonzero;fill:rgb(31.369019%,67.449951%,89.408875%);fill-opacity:1;" d="M 228.566406 324.847656 C 228.566406 329 225.191406 332.367188 221.03125 332.367188 L 212.570312 332.367188 C 208.414062 332.367188 205.042969 329 205.042969 324.847656 L 205.042969 304.785156 C 205.042969 300.636719 208.414062 297.269531 212.570312 297.269531 L 221.03125 297.269531 C 225.191406 297.269531 228.566406 300.636719 228.566406 304.785156 L 228.566406 324.847656 "/>
<g clip-path="url(#clip1)" clip-rule="nonzero">
<path style=" stroke:none;fill-rule:nonzero;fill:rgb(31.369019%,67.449951%,89.408875%);fill-opacity:1;" d="M 237.828125 330.171875 C 237.828125 334.328125 234.457031 337.699219 230.296875 337.699219 L 203.308594 337.699219 C 199.148438 337.699219 195.773438 334.328125 195.773438 330.171875 L 195.773438 329.234375 C 195.773438 325.082031 199.148438 321.714844 203.308594 321.714844 L 230.296875 321.714844 C 234.457031 321.714844 237.828125 325.082031 237.828125 329.234375 L 237.828125 330.171875 "/>
</g>
<path style=" stroke:none;fill-rule:nonzero;fill:rgb(31.369019%,67.449951%,89.408875%);fill-opacity:1;" d="M 141.183594 324.847656 C 141.183594 329 144.558594 332.367188 148.714844 332.367188 L 157.175781 332.367188 C 161.335938 332.367188 164.707031 329 164.707031 324.847656 L 164.707031 304.785156 C 164.707031 300.636719 161.335938 297.269531 157.175781 297.269531 L 148.714844 297.269531 C 144.558594 297.269531 141.183594 300.636719 141.183594 304.785156 L 141.183594 324.847656 "/>
<g clip-path="url(#clip2)" clip-rule="nonzero">
<path style=" stroke:none;fill-rule:nonzero;fill:rgb(31.369019%,67.449951%,89.408875%);fill-opacity:1;" d="M 131.917969 330.171875 C 131.917969 334.328125 135.289062 337.699219 139.453125 337.699219 L 166.441406 337.699219 C 170.601562 337.699219 173.972656 334.328125 173.972656 330.171875 L 173.972656 329.234375 C 173.972656 325.082031 170.601562 321.714844 166.441406 321.714844 L 139.453125 321.714844 C 135.289062 321.714844 131.917969 325.082031 131.917969 329.234375 L 131.917969 330.171875 "/>
</g>
<path style=" stroke:none;fill-rule:nonzero;fill:rgb(31.369019%,67.449951%,89.408875%);fill-opacity:1;" d="M 81.230469 178.164062 C 61.40625 156.644531 51.027344 133.972656 58.046875 127.523438 C 65.066406 121.074219 86.824219 133.292969 106.644531 154.8125 C 126.472656 176.332031 136.851562 199 129.832031 205.449219 C 122.816406 211.898438 101.054688 199.679688 81.230469 178.164062 "/>
<g clip-path="url(#clip3)" clip-rule="nonzero">
<path style=" stroke:none;fill-rule:nonzero;fill:rgb(31.369019%,67.449951%,89.408875%);fill-opacity:1;" d="M 55.03125 123.9375 C 47.402344 129.347656 36.832031 127.550781 31.417969 119.933594 L 22.753906 126.078125 C 31.5625 138.472656 48.765625 141.390625 61.179688 132.59375 C 73.59375 123.796875 76.515625 106.613281 67.703125 94.21875 L 59.042969 100.359375 C 64.453125 107.976562 62.65625 118.535156 55.03125 123.9375 "/>
</g>
<path style=" stroke:none;fill-rule:nonzero;fill:rgb(97.648621%,65.489197%,17.248535%);fill-opacity:1;" d="M 263.828125 238.632812 C 263.828125 282.179688 228.480469 317.480469 184.875 317.480469 C 141.265625 317.480469 105.917969 282.179688 105.917969 238.632812 C 105.917969 195.085938 141.265625 159.785156 184.875 159.785156 C 228.480469 159.785156 263.828125 195.085938 263.828125 238.632812 "/>
<path style=" stroke:none;fill-rule:nonzero;fill:rgb(31.369019%,67.449951%,89.408875%);fill-opacity:1;" d="M 210.785156 137.421875 C 210.785156 138.933594 208.867188 140.15625 206.492188 140.15625 L 166.636719 140.15625 C 164.269531 140.15625 162.347656 138.933594 162.347656 137.421875 C 162.347656 135.910156 164.269531 134.6875 166.636719 134.6875 L 206.492188 134.6875 C 208.867188 134.6875 210.785156 135.910156 210.785156 137.421875 "/>
<path style=" stroke:none;fill-rule:nonzero;fill:rgb(31.369019%,67.449951%,89.408875%);fill-opacity:1;" d="M 210.785156 142.757812 C 210.785156 144.269531 208.867188 145.492188 206.492188 145.492188 L 166.636719 145.492188 C 164.269531 145.492188 162.347656 144.269531 162.347656 142.757812 C 162.347656 141.246094 164.269531 140.023438 166.636719 140.023438 L 206.492188 140.023438 C 208.867188 140.023438 210.785156 141.246094 210.785156 142.757812 "/>
<path style=" stroke:none;fill-rule:nonzero;fill:rgb(31.369019%,67.449951%,89.408875%);fill-opacity:1;" d="M 210.785156 147.960938 C 210.785156 149.46875 208.867188 150.695312 206.492188 150.695312 L 166.636719 150.695312 C 164.269531 150.695312 162.347656 149.46875 162.347656 147.960938 C 162.347656 146.449219 164.269531 145.226562 166.636719 145.226562 L 206.492188 145.226562 C 208.867188 145.226562 210.785156 146.449219 210.785156 147.960938 "/>
<path style=" stroke:none;fill-rule:nonzero;fill:rgb(31.369019%,67.449951%,89.408875%);fill-opacity:1;" d="M 210.785156 153.429688 C 210.785156 154.941406 208.867188 156.167969 206.492188 156.167969 L 166.636719 156.167969 C 164.269531 156.167969 162.347656 154.941406 162.347656 153.429688 C 162.347656 151.917969 164.269531 150.695312 166.636719 150.695312 L 206.492188 150.695312 C 208.867188 150.695312 210.785156 151.917969 210.785156 153.429688 "/>
<path style=" stroke:none;fill-rule:nonzero;fill:rgb(31.369019%,67.449951%,89.408875%);fill-opacity:1;" d="M 210.785156 158.769531 C 210.785156 160.277344 208.867188 161.5 206.492188 161.5 L 166.636719 161.5 C 164.269531 161.5 162.347656 160.277344 162.347656 158.769531 C 162.347656 157.253906 164.269531 156.03125 166.636719 156.03125 L 206.492188 156.03125 C 208.867188 156.03125 210.785156 157.253906 210.785156 158.769531 "/>
<path style=" stroke:none;fill-rule:nonzero;fill:rgb(31.369019%,67.449951%,89.408875%);fill-opacity:1;" d="M 210.785156 163.96875 C 210.785156 165.480469 208.867188 166.703125 206.492188 166.703125 L 166.636719 166.703125 C 164.269531 166.703125 162.347656 165.480469 162.347656 163.96875 C 162.347656 162.457031 164.269531 161.234375 166.636719 161.234375 L 206.492188 161.234375 C 208.867188 161.234375 210.785156 162.457031 210.785156 163.96875 "/>
<path style=" stroke:none;fill-rule:nonzero;fill:rgb(32.159424%,68.629456%,90.19928%);fill-opacity:1;" d="M 256.34375 85.625 L 256.34375 110.328125 C 263.167969 110.328125 268.707031 104.800781 268.707031 97.976562 C 268.707031 91.160156 263.167969 85.625 256.34375 85.625 "/>
<path style=" stroke:none;fill-rule:nonzero;fill:rgb(32.159424%,68.629456%,90.19928%);fill-opacity:1;" d="M 259.992188 87.4375 L 259.992188 108.519531 C 265.820312 108.519531 270.546875 103.800781 270.546875 97.976562 C 270.546875 92.15625 265.820312 87.4375 259.992188 87.4375 "/>
<path style=" stroke:none;fill-rule:nonzero;fill:rgb(32.159424%,68.629456%,90.19928%);fill-opacity:1;" d="M 264.777344 90.125 L 264.777344 105.832031 C 269.117188 105.832031 272.636719 102.316406 272.636719 97.976562 C 272.636719 93.640625 269.117188 90.125 264.777344 90.125 "/>
<path style=" stroke:none;fill-rule:nonzero;fill:rgb(32.159424%,68.629456%,90.19928%);fill-opacity:1;" d="M 263.851562 88.167969 C 263.851562 88.167969 260.664062 40.847656 272.636719 28.707031 C 272.636719 28.707031 262.917969 41.222656 264.777344 88.582031 C 264.777344 88.582031 264.488281 89.964844 263.851562 88.167969 "/>
<g clip-path="url(#clip4)" clip-rule="nonzero">
<path style=" stroke:none;fill-rule:nonzero;fill:rgb(32.159424%,68.629456%,90.19928%);fill-opacity:1;" d="M 277.265625 28.707031 C 277.265625 31.261719 275.199219 33.332031 272.636719 33.332031 C 270.082031 33.332031 268.007812 31.261719 268.007812 28.707031 C 268.007812 26.15625 270.082031 24.085938 272.636719 24.085938 C 275.199219 24.085938 277.265625 26.15625 277.265625 28.707031 "/>
</g>
<path style=" stroke:none;fill-rule:nonzero;fill:rgb(32.159424%,68.629456%,90.19928%);fill-opacity:1;" d="M 116.382812 85.625 L 116.382812 110.328125 C 109.550781 110.328125 104.019531 104.800781 104.019531 97.976562 C 104.019531 91.160156 109.550781 85.625 116.382812 85.625 "/>
<path style=" stroke:none;fill-rule:nonzero;fill:rgb(32.159424%,68.629456%,90.19928%);fill-opacity:1;" d="M 112.730469 87.4375 L 112.730469 108.519531 C 106.902344 108.519531 102.175781 103.800781 102.175781 97.976562 C 102.175781 92.15625 106.902344 87.4375 112.730469 87.4375 "/>
<path style=" stroke:none;fill-rule:nonzero;fill:rgb(32.159424%,68.629456%,90.19928%);fill-opacity:1;" d="M 107.949219 90.125 L 107.949219 105.832031 C 103.605469 105.832031 100.082031 102.316406 100.082031 97.976562 C 100.082031 93.640625 103.605469 90.125 107.949219 90.125 "/>
<path style=" stroke:none;fill-rule:nonzero;fill:rgb(32.159424%,68.629456%,90.19928%);fill-opacity:1;" d="M 108.875 88.167969 C 108.875 88.167969 112.058594 40.847656 100.082031 28.707031 C 100.082031 28.707031 109.804688 41.222656 107.949219 88.582031 C 107.949219 88.582031 108.234375 89.964844 108.875 88.167969 "/>
<g clip-path="url(#clip5)" clip-rule="nonzero">
<path style=" stroke:none;fill-rule:nonzero;fill:rgb(32.159424%,68.629456%,90.19928%);fill-opacity:1;" d="M 95.453125 28.707031 C 95.453125 31.261719 97.527344 33.332031 100.082031 33.332031 C 102.640625 33.332031 104.710938 31.261719 104.710938 28.707031 C 104.710938 26.15625 102.640625 24.085938 100.082031 24.085938 C 97.527344 24.085938 95.453125 26.15625 95.453125 28.707031 "/>
</g>
<path style=" stroke:none;fill-rule:nonzero;fill:rgb(97.648621%,65.489197%,17.248535%);fill-opacity:1;" d="M 217.230469 53.125 L 155.898438 53.125 C 152.726562 53.125 115.332031 55.359375 115.332031 85.582031 L 115.332031 118.945312 C 115.332031 131.738281 130.679688 134.789062 133.859375 134.789062 L 239.269531 134.789062 C 242.445312 134.789062 257.796875 131.738281 257.796875 118.945312 L 257.796875 85.582031 C 257.796875 55.359375 220.40625 53.125 217.230469 53.125 "/>
<path style=" stroke:none;fill-rule:nonzero;fill:rgb(31.369019%,32.159424%,33.729553%);fill-opacity:1;" d="M 219.230469 99.507812 C 216.160156 118.261719 198.445312 130.984375 179.664062 127.917969 C 160.878906 124.855469 148.140625 107.164062 151.210938 88.40625 C 154.277344 69.652344 171.996094 56.929688 190.777344 59.992188 C 209.558594 63.058594 222.300781 80.75 219.230469 99.507812 "/>
<path style=" stroke:none;fill-rule:nonzero;fill:rgb(39.219666%,74.119568%,81.568909%);fill-opacity:1;" d="M 214.269531 98.695312 C 211.648438 114.71875 196.515625 125.585938 180.472656 122.96875 C 164.429688 120.347656 153.550781 105.238281 156.175781 89.214844 C 158.796875 73.191406 173.925781 62.332031 189.964844 64.949219 C 206.007812 67.566406 216.890625 82.675781 214.269531 98.695312 "/>
<path style=" stroke:none;fill-rule:nonzero;fill:rgb(100%,100%,100%);fill-opacity:1;" d="M 209.898438 97.984375 C 207.675781 111.597656 194.820312 120.828125 181.1875 118.605469 C 167.550781 116.378906 158.3125 103.542969 160.542969 89.929688 C 162.765625 76.316406 175.621094 67.082031 189.253906 69.308594 C 202.886719 71.535156 212.128906 84.371094 209.898438 97.984375 "/>
<path style=" stroke:none;fill-rule:nonzero;fill:rgb(32.159424%,68.629456%,90.19928%);fill-opacity:1;" d="M 197.261719 95.921875 C 196.175781 102.566406 189.902344 107.070312 183.25 105.984375 C 176.597656 104.898438 172.089844 98.632812 173.175781 91.992188 C 174.265625 85.351562 180.539062 80.84375 187.1875 81.929688 C 193.839844 83.011719 198.351562 89.28125 197.261719 95.921875 "/>
<path style=" stroke:none;fill-rule:nonzero;fill:rgb(92.158508%,92.158508%,91.758728%);fill-opacity:1;" d="M 184.875 317.480469 C 184.894531 317.480469 184.914062 317.480469 184.929688 317.480469 C 184.914062 317.480469 184.894531 317.480469 184.875 317.480469 M 184.808594 317.480469 C 184.800781 317.480469 184.796875 317.480469 184.789062 317.480469 C 184.796875 317.480469 184.796875 317.480469 184.808594 317.480469 M 184.953125 317.480469 C 184.96875 317.480469 184.976562 317.480469 184.992188 317.480469 C 184.980469 317.480469 184.964844 317.480469 184.953125 317.480469 M 184.742188 317.480469 C 184.734375 317.480469 184.722656 317.480469 184.714844 317.480469 C 184.722656 317.480469 184.734375 317.480469 184.742188 317.480469 M 185.007812 317.480469 C 185.027344 317.480469 185.039062 317.480469 185.058594 317.480469 C 185.039062 317.480469 185.027344 317.480469 185.007812 317.480469 M 185.066406 317.480469 C 185.085938 317.480469 185.109375 317.480469 185.125 317.480469 C 185.109375 317.480469 185.085938 317.480469 185.066406 317.480469 M 184.675781 317.480469 C 184.664062 317.480469 184.660156 317.480469 184.648438 317.480469 C 184.660156 317.480469 184.664062 317.480469 184.675781 317.480469 M 184.609375 317.480469 C 184.601562 317.480469 184.585938 317.480469 184.582031 317.480469 C 184.589844 317.480469 184.597656 317.480469 184.609375 317.480469 M 185.144531 317.480469 C 185.15625 317.480469 185.167969 317.480469 185.183594 317.480469 C 185.167969 317.480469 185.15625 317.480469 185.144531 317.480469 M 185.207031 317.480469 C 185.21875 317.480469 185.230469 317.480469 185.246094 317.480469 C 185.230469 317.480469 185.21875 317.480469 185.207031 317.480469 M 184.539062 317.480469 C 184.53125 317.480469 184.523438 317.480469 184.511719 317.480469 C 184.523438 317.480469 184.53125 317.480469 184.539062 317.480469 M 185.265625 317.480469 C 185.277344 317.480469 185.300781 317.480469 185.316406 317.480469 C 185.296875 317.480469 185.28125 317.480469 185.265625 317.480469 M 184.476562 317.480469 C 184.464844 317.480469 184.453125 317.480469 184.449219 317.480469 C 184.457031 317.480469 184.460938 317.480469 184.476562 317.480469 M 185.339844 317.480469 C 185.351562 317.476562 185.359375 317.476562 185.375 317.476562 C 185.363281 317.476562 185.351562 317.476562 185.339844 317.480469 M 184.40625 317.476562 C 184.398438 317.476562 184.386719 317.476562 184.378906 317.476562 C 184.390625 317.476562 184.398438 317.476562 184.40625 317.476562 M 185.402344 317.476562 C 185.410156 317.476562 185.421875 317.476562 185.429688 317.476562 C 185.421875 317.476562 185.410156 317.476562 185.402344 317.476562 M 184.339844 317.476562 C 184.328125 317.476562 184.320312 317.476562 184.3125 317.476562 C 184.320312 317.476562 184.332031 317.476562 184.339844 317.476562 M 185.457031 317.476562 C 185.472656 317.476562 185.484375 317.476562 185.496094 317.476562 C 185.484375 317.476562 185.472656 317.476562 185.457031 317.476562 M 184.269531 317.476562 C 184.261719 317.476562 184.253906 317.476562 184.246094 317.476562 C 184.253906 317.476562 184.265625 317.476562 184.269531 317.476562 M 185.535156 317.476562 C 185.546875 317.476562 185.554688 317.476562 185.566406 317.476562 C 185.558594 317.476562 185.542969 317.476562 185.535156 317.476562 M 184.203125 317.476562 C 184.195312 317.476562 184.1875 317.476562 184.179688 317.476562 C 184.1875 317.476562 184.191406 317.476562 184.203125 317.476562 M 185.59375 317.476562 C 185.605469 317.476562 185.613281 317.476562 185.621094 317.476562 C 185.613281 317.476562 185.605469 317.476562 185.59375 317.476562 M 184.125 317.476562 C 184.121094 317.476562 184.117188 317.476562 184.113281 317.476562 C 184.117188 317.476562 184.121094 317.476562 184.125 317.476562 M 185.652344 317.476562 C 185.660156 317.476562 185.667969 317.476562 185.675781 317.476562 C 185.667969 317.476562 185.664062 317.476562 185.652344 317.476562 M 185.800781 317.472656 C 185.800781 317.472656 185.804688 317.472656 185.808594 317.472656 C 185.804688 317.472656 185.800781 317.472656 185.800781 317.472656 M 183.910156 317.472656 C 183.90625 317.472656 183.902344 317.472656 183.898438 317.472656 C 183.902344 317.472656 183.90625 317.472656 183.910156 317.472656 M 185.855469 317.472656 L 185.855469 317.472656 M 183.84375 317.472656 C 183.839844 317.472656 183.832031 317.472656 183.828125 317.472656 C 183.832031 317.472656 183.839844 317.472656 183.84375 317.472656 M 183.777344 317.472656 C 183.769531 317.472656 183.765625 317.472656 183.757812 317.472656 C 183.765625 317.472656 183.769531 317.472656 183.777344 317.472656 M 183.710938 317.472656 C 183.703125 317.472656 183.695312 317.472656 183.691406 317.472656 C 183.699219 317.472656 183.699219 317.472656 183.710938 317.472656 M 183.640625 317.472656 C 183.632812 317.472656 183.632812 317.472656 183.625 317.472656 C 183.628906 317.472656 183.632812 317.472656 183.640625 317.472656 M 183.570312 317.472656 C 183.566406 317.472656 183.5625 317.472656 183.554688 317.472656 C 183.558594 317.472656 183.570312 317.472656 183.570312 317.472656 M 183.5 317.472656 C 183.5 317.472656 183.496094 317.46875 183.492188 317.46875 C 183.496094 317.46875 183.5 317.472656 183.5 317.472656 M 183.429688 317.46875 C 183.429688 317.46875 183.421875 317.46875 183.421875 317.46875 C 183.425781 317.46875 183.425781 317.46875 183.429688 317.46875 "/>
<path style=" stroke:none;fill-rule:nonzero;fill:rgb(89.019775%,59.609985%,15.289307%);fill-opacity:1;" d="M 184.875 317.480469 C 184.851562 317.480469 184.832031 317.480469 184.808594 317.480469 C 184.796875 317.480469 184.796875 317.480469 184.789062 317.480469 C 184.769531 317.480469 184.757812 317.480469 184.742188 317.480469 C 184.734375 317.480469 184.722656 317.480469 184.714844 317.480469 C 184.699219 317.480469 184.691406 317.480469 184.675781 317.480469 C 184.664062 317.480469 184.660156 317.480469 184.648438 317.480469 C 184.636719 317.480469 184.621094 317.480469 184.609375 317.480469 C 184.597656 317.480469 184.589844 317.480469 184.582031 317.480469 C 184.566406 317.480469 184.554688 317.480469 184.539062 317.480469 C 184.53125 317.480469 184.523438 317.480469 184.511719 317.480469 C 184.503906 317.480469 184.484375 317.480469 184.476562 317.480469 C 184.460938 317.480469 184.457031 317.480469 184.449219 317.480469 C 184.433594 317.480469 184.421875 317.480469 184.40625 317.476562 C 184.398438 317.476562 184.390625 317.476562 184.378906 317.476562 C 184.367188 317.476562 184.351562 317.476562 184.339844 317.476562 C 184.332031 317.476562 184.320312 317.476562 184.3125 317.476562 C 184.296875 317.476562 184.285156 317.476562 184.269531 317.476562 C 184.265625 317.476562 184.253906 317.476562 184.246094 317.476562 C 184.230469 317.476562 184.214844 317.476562 184.203125 317.476562 C 184.191406 317.476562 184.1875 317.476562 184.179688 317.476562 C 184.160156 317.476562 184.144531 317.476562 184.125 317.476562 C 184.121094 317.476562 184.117188 317.476562 184.113281 317.476562 C 184.046875 317.476562 183.976562 317.472656 183.910156 317.472656 C 183.90625 317.472656 183.902344 317.472656 183.898438 317.472656 C 183.882812 317.472656 183.863281 317.472656 183.84375 317.472656 C 183.839844 317.472656 183.832031 317.472656 183.828125 317.472656 C 183.8125 317.472656 183.789062 317.472656 183.777344 317.472656 C 183.769531 317.472656 183.765625 317.472656 183.757812 317.472656 C 183.742188 317.472656 183.722656 317.472656 183.710938 317.472656 C 183.699219 317.472656 183.699219 317.472656 183.691406 317.472656 C 183.675781 317.472656 183.660156 317.472656 183.640625 317.472656 C 183.632812 317.472656 183.628906 317.472656 183.625 317.472656 C 183.605469 317.472656 183.589844 317.472656 183.570312 317.472656 C 183.570312 317.472656 183.558594 317.472656 183.554688 317.472656 C 183.539062 317.472656 183.523438 317.472656 183.5 317.472656 C 183.5 317.472656 183.496094 317.46875 183.492188 317.46875 C 183.472656 317.46875 183.449219 317.46875 183.429688 317.46875 C 183.425781 317.46875 183.425781 317.46875 183.421875 317.46875 C 160.398438 317.054688 139.785156 306.796875 125.617188 290.730469 C 125.773438 290.816406 154.894531 306.253906 197.953125 306.253906 C 207.925781 306.253906 218.648438 305.425781 229.925781 303.386719 C 217.402344 312.09375 202.230469 317.277344 185.855469 317.472656 C 185.839844 317.472656 185.824219 317.472656 185.808594 317.472656 C 185.804688 317.472656 185.800781 317.472656 185.800781 317.472656 C 185.757812 317.476562 185.71875 317.476562 185.675781 317.476562 C 185.667969 317.476562 185.660156 317.476562 185.652344 317.476562 C 185.640625 317.476562 185.632812 317.476562 185.621094 317.476562 C 185.613281 317.476562 185.605469 317.476562 185.59375 317.476562 C 185.589844 317.476562 185.574219 317.476562 185.566406 317.476562 C 185.554688 317.476562 185.546875 317.476562 185.535156 317.476562 C 185.519531 317.476562 185.511719 317.476562 185.496094 317.476562 C 185.484375 317.476562 185.472656 317.476562 185.457031 317.476562 C 185.449219 317.476562 185.441406 317.476562 185.429688 317.476562 C 185.421875 317.476562 185.410156 317.476562 185.402344 317.476562 C 185.390625 317.476562 185.382812 317.476562 185.375 317.476562 C 185.359375 317.476562 185.351562 317.476562 185.339844 317.480469 C 185.332031 317.480469 185.324219 317.480469 185.316406 317.480469 C 185.300781 317.480469 185.277344 317.480469 185.265625 317.480469 C 185.257812 317.480469 185.25 317.480469 185.246094 317.480469 C 185.230469 317.480469 185.21875 317.480469 185.207031 317.480469 C 185.199219 317.480469 185.191406 317.480469 185.183594 317.480469 C 185.167969 317.480469 185.15625 317.480469 185.144531 317.480469 C 185.140625 317.480469 185.132812 317.480469 185.125 317.480469 C 185.109375 317.480469 185.085938 317.480469 185.066406 317.480469 C 185.0625 317.480469 185.058594 317.480469 185.058594 317.480469 C 185.039062 317.480469 185.027344 317.480469 185.007812 317.480469 C 185.007812 317.480469 185 317.480469 184.992188 317.480469 C 184.976562 317.480469 184.96875 317.480469 184.953125 317.480469 C 184.945312 317.480469 184.9375 317.480469 184.929688 317.480469 C 184.914062 317.480469 184.894531 317.480469 184.875 317.480469 "/>
<path style=" stroke:none;fill-rule:nonzero;fill:rgb(31.369019%,67.449951%,89.408875%);fill-opacity:1;" d="M 285.964844 205.929688 C 305.785156 227.445312 316.164062 250.117188 309.144531 256.566406 C 302.128906 263.011719 280.367188 250.796875 260.546875 229.277344 C 240.71875 207.761719 230.339844 185.089844 237.359375 178.640625 C 244.378906 172.195312 266.136719 184.410156 285.964844 205.929688 "/>
<g clip-path="url(#clip6)" clip-rule="nonzero">
<path style=" stroke:none;fill-rule:nonzero;fill:rgb(31.369019%,67.449951%,89.408875%);fill-opacity:1;" d="M 312.160156 260.148438 C 319.789062 254.742188 330.359375 256.539062 335.773438 264.152344 L 344.4375 258.015625 C 335.628906 245.613281 318.421875 242.699219 306.011719 251.496094 C 293.597656 260.292969 290.675781 277.476562 299.484375 289.871094 L 308.152344 283.730469 C 302.738281 276.113281 304.535156 265.554688 312.160156 260.148438 "/>
</g>
</g>
</svg>
