<?xml version="1.0" encoding="UTF-8"?>
<svg xmlns="http://www.w3.org/2000/svg" xmlns:xlink="http://www.w3.org/1999/xlink" width="375pt" height="374.999991pt" viewBox="0 0 375 374.999991" version="1.2">
<defs>
<clipPath id="clip1">
  <path d="M 187 296 L 247 296 L 247 336.910156 L 187 336.910156 Z M 187 296 "/>
</clipPath>
<clipPath id="clip2">
  <path d="M 122 296 L 182 296 L 182 336.910156 L 122 336.910156 Z M 122 296 "/>
</clipPath>
<clipPath id="clip3">
  <path d="M 19.015625 101 L 51 101 L 51 137 L 19.015625 137 Z M 19.015625 101 "/>
</clipPath>
<clipPath id="clip4">
  <path d="M 318 101 L 350.269531 101 L 350.269531 137 L 318 137 Z M 318 101 "/>
</clipPath>
<clipPath id="clip5">
  <path d="M 61 32.703125 L 190 32.703125 L 190 161 L 61 161 Z M 61 32.703125 "/>
</clipPath>
<clipPath id="clip6">
  <path d="M 180 32.703125 L 308 32.703125 L 308 161 L 180 161 Z M 180 32.703125 "/>
</clipPath>
</defs>
<g id="surface1">
<path style=" stroke:none;fill-rule:nonzero;fill:rgb(32.159424%,68.629456%,90.19928%);fill-opacity:1;" d="M 241.808594 262.59375 C 241.808594 265.796875 239.800781 268.390625 237.328125 268.390625 L 195.640625 268.390625 C 193.164062 268.390625 191.15625 265.796875 191.15625 262.59375 C 191.15625 259.394531 193.164062 256.804688 195.640625 256.804688 L 237.328125 256.804688 C 239.800781 256.804688 241.808594 259.394531 241.808594 262.59375 "/>
<path style=" stroke:none;fill-rule:nonzero;fill:rgb(32.159424%,68.629456%,90.19928%);fill-opacity:1;" d="M 241.808594 273.90625 C 241.808594 277.109375 239.800781 279.703125 237.328125 279.703125 L 195.640625 279.703125 C 193.164062 279.703125 191.15625 277.109375 191.15625 273.90625 C 191.15625 270.707031 193.164062 268.113281 195.640625 268.113281 L 237.328125 268.113281 C 239.800781 268.113281 241.808594 270.707031 241.808594 273.90625 "/>
<path style=" stroke:none;fill-rule:nonzero;fill:rgb(32.159424%,68.629456%,90.19928%);fill-opacity:1;" d="M 241.808594 284.933594 C 241.808594 288.132812 239.800781 290.726562 237.328125 290.726562 L 195.640625 290.726562 C 193.164062 290.726562 191.15625 288.132812 191.15625 284.933594 C 191.15625 281.730469 193.164062 279.140625 195.640625 279.140625 L 237.328125 279.140625 C 239.800781 279.140625 241.808594 281.730469 241.808594 284.933594 "/>
<path style=" stroke:none;fill-rule:nonzero;fill:rgb(32.159424%,68.629456%,90.19928%);fill-opacity:1;" d="M 241.808594 296.523438 C 241.808594 299.722656 239.800781 302.320312 237.328125 302.320312 L 195.640625 302.320312 C 193.164062 302.320312 191.15625 299.722656 191.15625 296.523438 C 191.15625 293.320312 193.164062 290.726562 195.640625 290.726562 L 237.328125 290.726562 C 239.800781 290.726562 241.808594 293.320312 241.808594 296.523438 "/>
<path style=" stroke:none;fill-rule:nonzero;fill:rgb(32.159424%,68.629456%,90.19928%);fill-opacity:1;" d="M 241.808594 307.832031 C 241.808594 311.03125 239.800781 313.628906 237.328125 313.628906 L 195.640625 313.628906 C 193.164062 313.628906 191.15625 311.03125 191.15625 307.832031 C 191.15625 304.632812 193.164062 302.039062 195.640625 302.039062 L 237.328125 302.039062 C 239.800781 302.039062 241.808594 304.632812 241.808594 307.832031 "/>
<path style=" stroke:none;fill-rule:nonzero;fill:rgb(32.159424%,68.629456%,90.19928%);fill-opacity:1;" d="M 241.808594 318.859375 C 241.808594 322.0625 239.800781 324.652344 237.328125 324.652344 L 195.640625 324.652344 C 193.164062 324.652344 191.15625 322.0625 191.15625 318.859375 C 191.15625 315.65625 193.164062 313.0625 195.640625 313.0625 L 237.328125 313.0625 C 239.800781 313.0625 241.808594 315.65625 241.808594 318.859375 "/>
<g clip-path="url(#clip1)" clip-rule="nonzero">
<path style=" stroke:none;fill-rule:nonzero;fill:rgb(31.369019%,32.159424%,33.729553%);fill-opacity:1;" d="M 216.839844 296.523438 C 200.585938 296.523438 187.410156 314.566406 187.410156 336.820312 L 246.265625 336.820312 C 246.265625 314.566406 233.089844 296.523438 216.839844 296.523438 "/>
</g>
<path style=" stroke:none;fill-rule:nonzero;fill:rgb(32.159424%,68.629456%,90.19928%);fill-opacity:1;" d="M 177.683594 262.59375 C 177.683594 265.796875 175.675781 268.390625 173.199219 268.390625 L 131.515625 268.390625 C 129.039062 268.390625 127.03125 265.796875 127.03125 262.59375 C 127.03125 259.394531 129.039062 256.804688 131.515625 256.804688 L 173.199219 256.804688 C 175.675781 256.804688 177.683594 259.394531 177.683594 262.59375 "/>
<path style=" stroke:none;fill-rule:nonzero;fill:rgb(32.159424%,68.629456%,90.19928%);fill-opacity:1;" d="M 177.683594 273.90625 C 177.683594 277.109375 175.675781 279.703125 173.199219 279.703125 L 131.515625 279.703125 C 129.039062 279.703125 127.03125 277.109375 127.03125 273.90625 C 127.03125 270.707031 129.039062 268.113281 131.515625 268.113281 L 173.199219 268.113281 C 175.675781 268.113281 177.683594 270.707031 177.683594 273.90625 "/>
<path style=" stroke:none;fill-rule:nonzero;fill:rgb(32.159424%,68.629456%,90.19928%);fill-opacity:1;" d="M 177.683594 284.933594 C 177.683594 288.132812 175.675781 290.726562 173.199219 290.726562 L 131.515625 290.726562 C 129.039062 290.726562 127.03125 288.132812 127.03125 284.933594 C 127.03125 281.730469 129.039062 279.140625 131.515625 279.140625 L 173.199219 279.140625 C 175.675781 279.140625 177.683594 281.730469 177.683594 284.933594 "/>
<path style=" stroke:none;fill-rule:nonzero;fill:rgb(32.159424%,68.629456%,90.19928%);fill-opacity:1;" d="M 177.683594 296.523438 C 177.683594 299.722656 175.675781 302.320312 173.199219 302.320312 L 131.515625 302.320312 C 129.039062 302.320312 127.03125 299.722656 127.03125 296.523438 C 127.03125 293.320312 129.039062 290.726562 131.515625 290.726562 L 173.199219 290.726562 C 175.675781 290.726562 177.683594 293.320312 177.683594 296.523438 "/>
<path style=" stroke:none;fill-rule:nonzero;fill:rgb(32.159424%,68.629456%,90.19928%);fill-opacity:1;" d="M 177.683594 307.832031 C 177.683594 311.03125 175.675781 313.628906 173.199219 313.628906 L 131.515625 313.628906 C 129.039062 313.628906 127.03125 311.03125 127.03125 307.832031 C 127.03125 304.632812 129.039062 302.039062 131.515625 302.039062 L 173.199219 302.039062 C 175.675781 302.039062 177.683594 304.632812 177.683594 307.832031 "/>
<path style=" stroke:none;fill-rule:nonzero;fill:rgb(32.159424%,68.629456%,90.19928%);fill-opacity:1;" d="M 177.683594 318.859375 C 177.683594 322.0625 175.675781 324.652344 173.199219 324.652344 L 131.515625 324.652344 C 129.039062 324.652344 127.03125 322.0625 127.03125 318.859375 C 127.03125 315.65625 129.039062 313.0625 131.515625 313.0625 L 173.199219 313.0625 C 175.675781 313.0625 177.683594 315.65625 177.683594 318.859375 "/>
<g clip-path="url(#clip2)" clip-rule="nonzero">
<path style=" stroke:none;fill-rule:nonzero;fill:rgb(31.369019%,32.159424%,33.729553%);fill-opacity:1;" d="M 152.359375 296.523438 C 136.105469 296.523438 122.929688 314.566406 122.929688 336.820312 L 181.785156 336.820312 C 181.785156 314.566406 168.609375 296.523438 152.359375 296.523438 "/>
</g>
<path style=" stroke:none;fill-rule:nonzero;fill:rgb(38.038635%,39.219666%,40.779114%);fill-opacity:1;" d="M 156.21875 312.28125 C 151.082031 312.28125 146.921875 309.617188 146.921875 306.332031 C 146.921875 303.046875 151.082031 300.386719 156.21875 300.386719 C 161.351562 300.386719 165.511719 303.046875 165.511719 306.332031 C 165.511719 309.617188 161.351562 312.28125 156.21875 312.28125 "/>
<path style=" stroke:none;fill-rule:nonzero;fill:rgb(38.038635%,39.219666%,40.779114%);fill-opacity:1;" d="M 220.984375 312.28125 C 215.851562 312.28125 211.6875 309.617188 211.6875 306.332031 C 211.6875 303.046875 215.851562 300.386719 220.984375 300.386719 C 226.117188 300.386719 230.28125 303.046875 230.28125 306.332031 C 230.28125 309.617188 226.117188 312.28125 220.984375 312.28125 "/>
<path style=" stroke:none;fill-rule:nonzero;fill:rgb(31.369019%,32.159424%,33.729553%);fill-opacity:1;" d="M 106.085938 173.375 C 103.183594 177.25 97.683594 178.042969 93.808594 175.136719 L 53.785156 145.15625 C 49.90625 142.25 49.121094 136.753906 52.023438 132.882812 C 54.925781 129.007812 60.425781 128.21875 64.300781 131.121094 L 104.324219 161.105469 C 108.203125 164.007812 108.988281 169.503906 106.085938 173.375 "/>
<path style=" stroke:none;fill-rule:nonzero;fill:rgb(31.369019%,32.159424%,33.729553%);fill-opacity:1;" d="M 43.9375 142.84375 C 38.269531 138.597656 37.121094 130.566406 41.367188 124.902344 C 45.613281 119.238281 53.648438 118.085938 59.316406 122.332031 C 64.984375 126.578125 66.136719 134.609375 61.890625 140.273438 C 57.640625 145.9375 49.605469 147.089844 43.9375 142.84375 "/>
<g clip-path="url(#clip3)" clip-rule="nonzero">
<path style=" stroke:none;fill-rule:nonzero;fill:rgb(31.369019%,32.159424%,33.729553%);fill-opacity:1;" d="M 38.734375 122.929688 C 35.5 127.246094 29.382812 128.121094 25.066406 124.890625 L 18.976562 133.011719 C 27.777344 139.605469 40.265625 137.816406 46.859375 129.019531 C 53.460938 120.21875 51.671875 107.738281 42.867188 101.144531 L 36.773438 109.269531 C 41.089844 112.5 41.96875 118.617188 38.734375 122.929688 "/>
</g>
<path style=" stroke:none;fill-rule:nonzero;fill:rgb(31.369019%,32.159424%,33.729553%);fill-opacity:1;" d="M 263.109375 173.375 C 266.011719 177.25 271.511719 178.042969 275.386719 175.136719 L 315.414062 145.15625 C 319.292969 142.25 320.078125 136.753906 317.171875 132.882812 C 314.269531 129.007812 308.769531 128.21875 304.898438 131.121094 L 264.871094 161.105469 C 260.996094 164.007812 260.207031 169.503906 263.109375 173.375 "/>
<path style=" stroke:none;fill-rule:nonzero;fill:rgb(31.369019%,32.159424%,33.729553%);fill-opacity:1;" d="M 325.257812 142.84375 C 330.925781 138.597656 332.074219 130.566406 327.828125 124.902344 C 323.585938 119.238281 315.546875 118.085938 309.878906 122.332031 C 304.214844 126.578125 303.0625 134.609375 307.308594 140.273438 C 311.558594 145.9375 319.59375 147.089844 325.257812 142.84375 "/>
<g clip-path="url(#clip4)" clip-rule="nonzero">
<path style=" stroke:none;fill-rule:nonzero;fill:rgb(31.369019%,32.159424%,33.729553%);fill-opacity:1;" d="M 330.460938 122.929688 C 333.699219 127.246094 339.816406 128.121094 344.132812 124.890625 L 350.21875 133.011719 C 341.417969 139.605469 328.929688 137.816406 322.335938 129.019531 C 315.738281 120.21875 317.527344 107.738281 326.332031 101.144531 L 332.421875 109.269531 C 328.105469 112.5 327.226562 118.617188 330.460938 122.929688 "/>
</g>
<path style=" stroke:none;fill-rule:nonzero;fill:rgb(97.648621%,65.489197%,17.248535%);fill-opacity:1;" d="M 279.097656 188.609375 C 279.097656 241.667969 236.0625 284.6875 182.976562 284.6875 C 129.890625 284.6875 86.859375 241.667969 86.859375 188.609375 C 86.859375 135.546875 129.890625 92.53125 182.976562 92.53125 C 236.0625 92.53125 279.097656 135.546875 279.097656 188.609375 "/>
<path style=" stroke:none;fill-rule:nonzero;fill:rgb(92.158508%,92.158508%,91.758728%);fill-opacity:1;" d="M 182.976562 284.6875 C 183 284.6875 183.027344 284.6875 183.050781 284.6875 C 183.027344 284.6875 183.003906 284.6875 182.976562 284.6875 M 182.894531 284.6875 C 182.886719 284.6875 182.878906 284.6875 182.867188 284.6875 C 182.878906 284.6875 182.886719 284.6875 182.894531 284.6875 M 183.070312 284.6875 C 183.089844 284.6875 183.097656 284.6875 183.121094 284.6875 C 183.101562 284.6875 183.085938 284.6875 183.070312 284.6875 M 182.816406 284.6875 C 182.804688 284.6875 182.796875 284.6875 182.785156 284.6875 C 182.792969 284.6875 182.804688 284.6875 182.816406 284.6875 M 183.144531 284.6875 C 183.164062 284.6875 183.179688 284.6875 183.199219 284.6875 C 183.179688 284.6875 183.164062 284.6875 183.144531 284.6875 M 183.214844 284.6875 C 183.238281 284.6875 183.261719 284.6875 183.285156 284.6875 C 183.261719 284.6875 183.238281 284.6875 183.214844 284.6875 M 182.734375 284.6875 C 182.722656 284.6875 182.710938 284.6875 182.703125 284.6875 C 182.710938 284.6875 182.726562 284.6875 182.734375 284.6875 M 182.652344 284.6875 C 182.640625 284.6875 182.628906 284.6875 182.617188 284.6875 C 182.632812 284.6875 182.636719 284.6875 182.652344 284.6875 M 183.308594 284.6875 C 183.320312 284.6875 183.335938 284.6875 183.351562 284.6875 C 183.335938 284.6875 183.320312 284.6875 183.308594 284.6875 M 183.378906 284.6875 C 183.394531 284.6875 183.410156 284.6875 183.425781 284.6875 C 183.410156 284.6875 183.398438 284.6875 183.378906 284.6875 M 182.570312 284.6875 C 182.558594 284.6875 182.546875 284.6875 182.539062 284.6875 C 182.542969 284.6875 182.5625 284.6875 182.570312 284.6875 M 183.449219 284.6875 C 183.472656 284.6875 183.492188 284.6875 183.515625 284.6875 C 183.492188 284.6875 183.46875 284.6875 183.449219 284.6875 M 182.488281 284.6875 C 182.476562 284.6875 182.464844 284.6875 182.453125 284.6875 C 182.46875 284.6875 182.476562 284.6875 182.488281 284.6875 M 183.539062 284.6875 C 183.558594 284.6875 183.570312 284.6875 183.582031 284.6875 C 183.570312 284.6875 183.558594 284.6875 183.539062 284.6875 M 182.40625 284.6875 C 182.394531 284.6875 182.386719 284.6875 182.375 284.6875 C 182.382812 284.6875 182.398438 284.6875 182.40625 284.6875 M 183.617188 284.683594 C 183.628906 284.683594 183.644531 284.683594 183.652344 284.683594 C 183.644531 284.683594 183.628906 284.683594 183.617188 284.683594 M 182.324219 284.683594 C 182.3125 284.683594 182.304688 284.683594 182.289062 284.683594 C 182.300781 284.683594 182.3125 284.683594 182.324219 284.683594 M 183.6875 284.683594 C 183.703125 284.683594 183.714844 284.683594 183.730469 284.683594 C 183.714844 284.683594 183.699219 284.683594 183.6875 284.683594 M 182.242188 284.683594 C 182.234375 284.683594 182.222656 284.683594 182.214844 284.683594 C 182.222656 284.683594 182.230469 284.683594 182.242188 284.683594 M 183.785156 284.683594 C 183.796875 284.683594 183.804688 284.683594 183.816406 284.683594 C 183.808594 284.683594 183.792969 284.683594 183.785156 284.683594 M 182.15625 284.683594 C 182.148438 284.683594 182.140625 284.683594 182.128906 284.683594 C 182.136719 284.683594 182.152344 284.683594 182.15625 284.683594 M 183.859375 284.683594 C 183.863281 284.683594 183.878906 284.683594 183.886719 284.683594 C 183.878906 284.683594 183.867188 284.683594 183.859375 284.683594 M 182.0625 284.683594 C 182.058594 284.683594 182.054688 284.683594 182.050781 284.683594 C 182.054688 284.683594 182.058594 284.683594 182.0625 284.683594 M 183.925781 284.683594 C 183.933594 284.679688 183.949219 284.679688 183.953125 284.679688 C 183.949219 284.679688 183.933594 284.679688 183.925781 284.683594 M 184.039062 284.679688 C 184.046875 284.679688 184.046875 284.679688 184.050781 284.679688 C 184.046875 284.679688 184.046875 284.679688 184.039062 284.679688 M 184.097656 284.679688 C 184.101562 284.679688 184.113281 284.679688 184.117188 284.679688 C 184.113281 284.679688 184.105469 284.679688 184.097656 284.679688 M 181.804688 284.679688 C 181.796875 284.679688 181.792969 284.679688 181.785156 284.679688 C 181.792969 284.679688 181.796875 284.679688 181.804688 284.679688 M 184.164062 284.679688 C 184.171875 284.679688 184.171875 284.679688 184.179688 284.679688 C 184.175781 284.679688 184.167969 284.679688 184.164062 284.679688 M 181.722656 284.675781 C 181.714844 284.675781 181.710938 284.675781 181.703125 284.675781 C 181.710938 284.675781 181.714844 284.675781 181.722656 284.675781 M 181.644531 284.675781 C 181.632812 284.675781 181.625 284.675781 181.617188 284.675781 C 181.621094 284.675781 181.636719 284.675781 181.644531 284.675781 M 181.558594 284.675781 C 181.550781 284.675781 181.542969 284.675781 181.535156 284.675781 C 181.546875 284.675781 181.550781 284.675781 181.558594 284.675781 M 184.410156 284.675781 C 184.414062 284.675781 184.40625 284.675781 184.410156 284.675781 M 181.476562 284.671875 C 181.46875 284.671875 181.460938 284.671875 181.453125 284.671875 C 181.460938 284.671875 181.46875 284.671875 181.476562 284.671875 M 181.390625 284.671875 C 181.386719 284.671875 181.378906 284.671875 181.371094 284.671875 C 181.378906 284.671875 181.386719 284.671875 181.390625 284.671875 M 181.308594 284.671875 C 181.300781 284.671875 181.296875 284.671875 181.292969 284.671875 C 181.296875 284.671875 181.300781 284.671875 181.308594 284.671875 M 181.21875 284.667969 C 181.21875 284.667969 181.210938 284.667969 181.210938 284.667969 C 181.214844 284.667969 181.214844 284.667969 181.21875 284.667969 "/>
<path style=" stroke:none;fill-rule:nonzero;fill:rgb(89.019775%,59.609985%,15.289307%);fill-opacity:1;" d="M 182.976562 284.6875 C 182.953125 284.6875 182.921875 284.6875 182.894531 284.6875 C 182.886719 284.6875 182.878906 284.6875 182.867188 284.6875 C 182.851562 284.6875 182.832031 284.6875 182.816406 284.6875 C 182.804688 284.6875 182.792969 284.6875 182.785156 284.6875 C 182.769531 284.6875 182.75 284.6875 182.734375 284.6875 C 182.726562 284.6875 182.710938 284.6875 182.703125 284.6875 C 182.683594 284.6875 182.667969 284.6875 182.652344 284.6875 C 182.636719 284.6875 182.632812 284.6875 182.617188 284.6875 C 182.601562 284.6875 182.589844 284.6875 182.570312 284.6875 C 182.5625 284.6875 182.542969 284.6875 182.539062 284.6875 C 182.523438 284.6875 182.503906 284.6875 182.488281 284.6875 C 182.476562 284.6875 182.46875 284.6875 182.453125 284.6875 C 182.4375 284.6875 182.425781 284.6875 182.40625 284.6875 C 182.398438 284.6875 182.382812 284.6875 182.375 284.6875 C 182.359375 284.6875 182.339844 284.683594 182.324219 284.683594 C 182.3125 284.683594 182.300781 284.683594 182.289062 284.683594 C 182.273438 284.683594 182.257812 284.683594 182.242188 284.683594 C 182.230469 284.683594 182.222656 284.683594 182.214844 284.683594 C 182.195312 284.683594 182.175781 284.683594 182.15625 284.683594 C 182.152344 284.683594 182.136719 284.683594 182.128906 284.683594 C 182.105469 284.683594 182.085938 284.683594 182.0625 284.683594 C 182.058594 284.683594 182.054688 284.683594 182.050781 284.683594 C 181.992188 284.679688 181.941406 284.679688 181.882812 284.679688 C 181.855469 284.679688 181.828125 284.679688 181.804688 284.679688 C 181.796875 284.679688 181.792969 284.679688 181.785156 284.679688 C 181.765625 284.679688 181.742188 284.679688 181.722656 284.675781 C 181.714844 284.675781 181.710938 284.675781 181.703125 284.675781 C 181.683594 284.675781 181.660156 284.675781 181.644531 284.675781 C 181.636719 284.675781 181.621094 284.675781 181.617188 284.675781 C 181.597656 284.675781 181.574219 284.675781 181.558594 284.675781 C 181.550781 284.675781 181.546875 284.675781 181.535156 284.675781 C 181.515625 284.675781 181.496094 284.675781 181.476562 284.671875 C 181.46875 284.671875 181.460938 284.671875 181.453125 284.671875 C 181.433594 284.671875 181.414062 284.671875 181.390625 284.671875 C 181.386719 284.671875 181.378906 284.671875 181.371094 284.671875 C 181.351562 284.671875 181.328125 284.671875 181.308594 284.671875 C 181.300781 284.671875 181.296875 284.671875 181.292969 284.671875 C 181.265625 284.667969 181.246094 284.667969 181.21875 284.667969 C 181.214844 284.667969 181.214844 284.667969 181.210938 284.667969 C 153.179688 284.164062 128.085938 271.664062 110.835938 252.09375 C 111.03125 252.191406 146.480469 271.003906 198.898438 271.003906 C 211.039062 271.003906 224.09375 269.996094 237.824219 267.511719 C 222.632812 278.082031 204.25 284.386719 184.410156 284.675781 C 184.40625 284.675781 184.414062 284.675781 184.410156 284.675781 C 184.328125 284.675781 184.253906 284.675781 184.179688 284.679688 C 184.171875 284.679688 184.171875 284.679688 184.164062 284.679688 C 184.148438 284.679688 184.136719 284.679688 184.117188 284.679688 C 184.113281 284.679688 184.101562 284.679688 184.097656 284.679688 C 184.082031 284.679688 184.070312 284.679688 184.050781 284.679688 C 184.046875 284.679688 184.046875 284.679688 184.039062 284.679688 C 184.011719 284.679688 183.984375 284.679688 183.953125 284.679688 C 183.949219 284.679688 183.933594 284.679688 183.925781 284.683594 C 183.910156 284.683594 183.898438 284.683594 183.886719 284.683594 C 183.878906 284.683594 183.863281 284.683594 183.859375 284.683594 C 183.84375 284.683594 183.832031 284.683594 183.816406 284.683594 C 183.804688 284.683594 183.796875 284.683594 183.785156 284.683594 C 183.769531 284.683594 183.746094 284.683594 183.730469 284.683594 C 183.714844 284.683594 183.703125 284.683594 183.6875 284.683594 C 183.675781 284.683594 183.667969 284.683594 183.652344 284.683594 C 183.644531 284.683594 183.628906 284.683594 183.617188 284.683594 C 183.605469 284.6875 183.597656 284.6875 183.582031 284.6875 C 183.570312 284.6875 183.558594 284.6875 183.539062 284.6875 C 183.535156 284.6875 183.523438 284.6875 183.515625 284.6875 C 183.492188 284.6875 183.472656 284.6875 183.449219 284.6875 C 183.441406 284.6875 183.433594 284.6875 183.425781 284.6875 C 183.410156 284.6875 183.394531 284.6875 183.378906 284.6875 C 183.371094 284.6875 183.359375 284.6875 183.351562 284.6875 C 183.335938 284.6875 183.320312 284.6875 183.308594 284.6875 C 183.296875 284.6875 183.289062 284.6875 183.285156 284.6875 C 183.261719 284.6875 183.238281 284.6875 183.214844 284.6875 C 183.210938 284.6875 183.203125 284.6875 183.199219 284.6875 C 183.179688 284.6875 183.164062 284.6875 183.144531 284.6875 C 183.136719 284.6875 183.125 284.6875 183.121094 284.6875 C 183.097656 284.6875 183.089844 284.6875 183.070312 284.6875 C 183.0625 284.6875 183.054688 284.6875 183.050781 284.6875 C 183.027344 284.6875 183 284.6875 182.976562 284.6875 "/>
<g clip-path="url(#clip5)" clip-rule="nonzero">
<path style=" stroke:none;fill-rule:nonzero;fill:rgb(23.139954%,22.349548%,23.919678%);fill-opacity:1;" d="M 189.054688 96.753906 C 189.054688 132.027344 160.449219 160.625 125.15625 160.625 C 89.867188 160.625 61.257812 132.027344 61.257812 96.753906 C 61.257812 61.476562 89.867188 32.878906 125.15625 32.878906 C 160.449219 32.878906 189.054688 61.476562 189.054688 96.753906 "/>
</g>
<g clip-path="url(#clip6)" clip-rule="nonzero">
<path style=" stroke:none;fill-rule:nonzero;fill:rgb(23.139954%,22.349548%,23.919678%);fill-opacity:1;" d="M 307.9375 96.753906 C 307.9375 132.027344 279.328125 160.625 244.039062 160.625 C 208.75 160.625 180.140625 132.027344 180.140625 96.753906 C 180.140625 61.476562 208.75 32.878906 244.039062 32.878906 C 279.328125 32.878906 307.9375 61.476562 307.9375 96.753906 "/>
</g>
<path style=" stroke:none;fill-rule:nonzero;fill:rgb(39.219666%,74.119568%,81.568909%);fill-opacity:1;" d="M 303.8125 100.878906 C 303.8125 133.875 277.050781 160.625 244.039062 160.625 C 211.027344 160.625 184.265625 133.875 184.265625 100.878906 C 184.265625 67.882812 211.027344 41.128906 244.039062 41.128906 C 277.050781 41.128906 303.8125 67.882812 303.8125 100.878906 "/>
<path style=" stroke:none;fill-rule:nonzero;fill:rgb(100%,100%,100%);fill-opacity:1;" d="M 294.828125 100.878906 C 294.828125 128.914062 272.089844 151.644531 244.039062 151.644531 C 215.988281 151.644531 193.253906 128.914062 193.253906 100.878906 C 193.253906 72.839844 215.988281 50.113281 244.039062 50.113281 C 272.089844 50.113281 294.828125 72.839844 294.828125 100.878906 "/>
<path style=" stroke:none;fill-rule:nonzero;fill:rgb(61.178589%,87.059021%,97.24884%);fill-opacity:1;" d="M 268.824219 100.878906 C 268.824219 114.5625 257.726562 125.648438 244.039062 125.648438 C 230.351562 125.648438 219.253906 114.5625 219.253906 100.878906 C 219.253906 87.195312 230.351562 76.101562 244.039062 76.101562 C 257.726562 76.101562 268.824219 87.195312 268.824219 100.878906 "/>
<path style=" stroke:none;fill-rule:nonzero;fill:rgb(39.219666%,74.119568%,81.568909%);fill-opacity:1;" d="M 184.929688 100.878906 C 184.929688 133.875 158.167969 160.625 125.15625 160.625 C 92.144531 160.625 65.382812 133.875 65.382812 100.878906 C 65.382812 67.882812 92.144531 41.128906 125.15625 41.128906 C 158.167969 41.128906 184.929688 67.882812 184.929688 100.878906 "/>
<path style=" stroke:none;fill-rule:nonzero;fill:rgb(100%,100%,100%);fill-opacity:1;" d="M 175.945312 100.878906 C 175.945312 128.914062 153.207031 151.644531 125.15625 151.644531 C 97.105469 151.644531 74.371094 128.914062 74.371094 100.878906 C 74.371094 72.839844 97.105469 50.113281 125.15625 50.113281 C 153.207031 50.113281 175.945312 72.839844 175.945312 100.878906 "/>
<path style=" stroke:none;fill-rule:nonzero;fill:rgb(61.178589%,87.059021%,97.24884%);fill-opacity:1;" d="M 149.941406 100.878906 C 149.941406 114.5625 138.84375 125.648438 125.15625 125.648438 C 111.46875 125.648438 100.375 114.5625 100.375 100.878906 C 100.375 87.195312 111.46875 76.101562 125.15625 76.101562 C 138.84375 76.101562 149.941406 87.195312 149.941406 100.878906 "/>
<path style=" stroke:none;fill-rule:nonzero;fill:rgb(97.648621%,72.549438%,29.798889%);fill-opacity:1;" d="M 117.015625 204.253906 C 110.394531 204.253906 105.59375 202.453125 105.582031 197.878906 C 105.535156 183.410156 119.929688 180.492188 131.035156 180.492188 C 134.578125 180.492188 137.789062 180.789062 140.085938 181.105469 C 177.164062 186.1875 137.976562 204.253906 117.015625 204.253906 "/>
<path style=" stroke:none;fill-rule:nonzero;fill:rgb(97.648621%,72.549438%,29.798889%);fill-opacity:1;" d="M 251.308594 204.253906 C 230.34375 204.253906 191.160156 186.1875 228.234375 181.105469 C 230.535156 180.789062 233.742188 180.492188 237.285156 180.492188 C 248.390625 180.492188 262.785156 183.410156 262.742188 197.878906 C 262.726562 202.453125 257.925781 204.253906 251.308594 204.253906 "/>
</g>
</svg>
